<?xml version="1.0" encoding="utf-8"?>
<!-- Generator: Adobe Illustrator 23.0.2, SVG Export Plug-In . SVG Version: 6.00 Build 0)  -->
<svg version="1.1" id="图层_1" xmlns="http://www.w3.org/2000/svg" xmlns:xlink="http://www.w3.org/1999/xlink" x="0px" y="0px"
	 viewBox="0 0 486 241.6" style="enable-background:new 0 0 486 241.6;" xml:space="preserve">
<style type="text/css">
	.st0{fill:#F47B36;}
	.st1{fill:#F37134;}
	.st2{fill:#F15B30;}
	.st3{fill:#F26631;}
	.st4{fill:#F0502D;}
	.st5{fill:#F04C2C;}
	.st6{fill:#F1572E;}
	.st7{fill:#F36B32;}
	.st8{fill:#E91B23;}
	.st9{fill:#DE1D26;}
	.st10{fill:#F04D2C;}
	.st11{fill:#EC2626;}
	.st12{fill:#F15D30;}
	.st13{fill:#F1552D;}
	.st14{fill:#ED3327;}
	.st15{fill:#EE3B29;}
	.st16{fill:#ED2827;}
	.st17{fill:#E71B25;}
	.st18{fill:#F0482C;}
	.st19{fill:#EE3D2A;}
	.st20{fill:#EC2A26;}
	.st21{fill:#F58437;}
	.st22{fill:#F47F36;}
	.st23{fill:#ED3528;}
	.st24{fill:#F1562E;}
	.st25{fill:#F15C30;}
	.st26{fill:#ED3127;}
	.st27{fill:#EF422B;}
	.st28{fill:#F1592F;}
	.st29{fill:#F1552E;}
	.st30{fill:#EC2225;}
	.st31{fill:#ED2F27;}
	.st32{fill:#F57E36;}
	.st33{fill:#EF462C;}
	.st34{fill:#EF442C;}
	.st35{fill:#F47735;}
	.st36{fill:#F16031;}
	.st37{fill:#F36D33;}
	.st38{fill:#EC2628;}
	.st39{fill:#F47235;}
	.st40{fill:#F0492D;}
	.st41{fill:#F26632;}
	.st42{fill:#F15F30;}
	.st43{fill:#EF3E2A;}
	.st44{fill:#EB1E24;}
	.st45{fill:#EE3A2A;}
	.st46{fill:#F16131;}
	.st47{fill:#F26531;}
	.st48{fill:#ED3929;}
	.st49{fill:#ED3128;}
	.st50{fill:#EF452B;}
	.st51{fill:#EE3929;}
	.st52{fill:#EE3B2A;}
	.st53{fill:#EF432B;}
	.st54{fill:#F58737;}
	.st55{fill:#D81F2A;}
	.st56{fill:#F36D34;}
	.st57{fill:#F48038;}
	.st58{fill:#EC2926;}
	.st59{fill:#F68436;}
	.st60{fill:#EE3429;}
	.st61{fill:#EF452C;}
	.st62{fill:#F37735;}
	.st63{fill:#F26130;}
	.st64{fill:#F79C3D;}
	.st65{fill:#F26732;}
	.st66{fill:#EF502D;}
	.st67{fill:#F26233;}
	.st68{fill:#EE3728;}
	.st69{fill:#F26932;}
	.st70{fill:#EE452C;}
	.st71{fill:#F26331;}
	.st72{fill:#F26D34;}
	.st73{fill:#EF3F2B;}
	.st74{fill:#F26A34;}
	.st75{fill:#F58338;}
	.st76{fill:#F47434;}
	.st77{fill:#F15C31;}
	.st78{fill:#F78E3B;}
	.st79{fill:#F47134;}
	.st80{fill:#F3893E;}
	.st81{fill:#F47032;}
	.st82{fill:#F0672F;}
	.st83{fill:#F0352A;}
	.st84{fill:#F47A3A;}
	.st85{fill:#F58C37;}
	.st86{fill:#F38038;}
	.st87{fill:#F03F2C;}
	.st88{fill:#EF4D2C;}
	.st89{fill:#F27D3C;}
	.st90{fill:#F99036;}
	.st91{fill:#F6803B;}
	.st92{fill:#F69640;}
	.st93{fill:#ED4E2A;}
	.st94{fill:#F37535;}
	.st95{fill:#F27837;}
	.st96{fill:#ED552C;}
	.st97{fill:#EB3C26;}
	.st98{fill:#ED242C;}
	.st99{fill:#F5833E;}
	.st100{fill:#F68537;}
	.st101{fill:#F57D3B;}
	.st102{fill:#F79432;}
	.st103{fill:#F33024;}
	.st104{fill:#F39347;}
	.st105{fill:#F15134;}
	.st106{fill:#EA2721;}
	.st107{fill:#EC332A;}
	.st108{fill:#F68C3E;}
	.st109{fill:#EB333B;}
	.st110{fill:#EC4829;}
	.st111{fill:#F79740;}
	.st112{fill:#F45631;}
	.st113{fill:#ED2D26;}
	.st114{fill:#FA8B34;}
	.st115{fill:#F1703E;}
	.st116{fill:#EC2F2A;}
	.st117{fill:#FEDBB8;}
	.st118{fill:#E31E27;}
	.st119{fill:#F64D3A;}
	.st120{fill:#EE7831;}
	.st121{fill:#F7A080;}
	.st122{fill:#F15C2A;}
	.st123{fill:#EF743B;}
	.st124{fill:#E94822;}
	.st125{fill:#EB1E19;}
	.st126{fill:#F98832;}
	.st127{fill:#F5682B;}
	.st128{fill:#F33426;}
	.st129{fill:#F8A34F;}
	.st130{fill:#FB6431;}
	.st131{fill:#FCDFCB;}
	.st132{fill:#F8B790;}
	.st133{fill:#ED7735;}
	.st134{fill:#F64934;}
	.st135{fill:#F35D36;}
	.st136{fill:#F47B3C;}
	.st137{fill:#FEFCFB;}
	.st138{fill:#F47734;}
	.st139{fill:#FA7531;}
	.st140{fill:#F6763D;}
	.st141{fill:#ED773B;}
	.st142{fill:#F67A30;}
	.st143{fill:#F07A2F;}
	.st144{fill:#F87230;}
	.st145{fill:#F7762E;}
	.st146{fill:#F26832;}
	.st147{fill:#F26D32;}
	.st148{fill:#F86A35;}
	.st149{fill:#ED572B;}
	.st150{fill:#F36330;}
	.st151{fill:#F36432;}
	.st152{fill:#F46032;}
	.st153{fill:#ED6331;}
	.st154{fill:#EB6B30;}
	.st155{fill:#F1532D;}
	.st156{fill:#ED582C;}
	.st157{fill:#EB4F29;}
	.st158{fill:#F04A2D;}
	.st159{fill:#EE5228;}
	.st160{fill:#F05C36;}
	.st161{fill:#DF1A27;}
	.st162{fill:#F0492C;}
	.st163{fill:#EC4D26;}
	.st164{fill:#EC2A20;}
	.st165{fill:#E92A2C;}
	.st166{fill:#EF241E;}
	.st167{fill:#EF412A;}
	.st168{fill:#F4452F;}
	.st169{fill:#F63227;}
	.st170{fill:#F6352A;}
	.st171{fill:#F0512D;}
	.st172{fill:#FDF0ED;}
	.st173{fill:#F55330;}
	.st174{fill:#EA552A;}
	.st175{fill:#F78D6E;}
	.st176{fill:#F2602A;}
	.st177{fill:#F2572F;}
	.st178{fill:#EE3D29;}
	.st179{fill:#F23C2F;}
	.st180{fill:#F14C31;}
	.st181{fill:#F75C32;}
	.st182{fill:#F4372D;}
	.st183{fill:#EA3A24;}
	.st184{fill:#ED3522;}
	.st185{fill:#EF8A3F;}
	.st186{fill:#F3372B;}
	.st187{fill:#DD1728;}
	.st188{fill:#F36B36;}
	.st189{fill:#E73429;}
	.st190{fill:#EB6634;}
	.st191{fill:#F77E35;}
	.st192{fill:#FA8231;}
	.st193{fill:#F77730;}
	.st194{fill:#EE602B;}
	.st195{fill:#F66637;}
	.st196{fill:#F35A28;}
	.st197{fill:#EE662C;}
	.st198{font-family:'Consolas';}
	.st199{font-size:36px;}
</style>
<g>
	<g>
		<path class="st0" d="M285.1,15.8c-0.1-0.2-0.1-0.4-0.1-0.6c0.2-0.2,0.3-0.4,0.5-0.5c0.9-0.5,1.8-0.5,2.8-0.3
			c0.7,0.2,1.2,0.7,1.6,1.2c0.8,1.9,3.3,2.3,3.8,4.5c0.1,1.2-0.4,2.3-1.2,3.2c-0.4,0.3-0.8,0.4-1.3,0.5c-1.8-0.4-3.3-0.4-3.7,1.9
			c-0.3,0.6-0.9,1.1-1.5,1.3c-7.3,1.6-11.1,7.5-15.7,12.4c-2.1,2.2-2.7,5.7-6.2,6.7c-1.2-1-1.6-2.4-1.9-3.8
			c-0.1-1.2,0.3-2.3,1.2-3.2c0.4-0.5-0.1,0.1,0.4-0.2c0.9-0.5,0.4-1.5,1-2c-0.8,0.3-0.3,1.5-1.1,1.7c-4.1,1.1-7,4.7-11.4,5.1
			c-1.7-1.2-2.7,1.8-4.4,0.8c-1.3-0.9-1.7-2.4-0.5-3.3c3.7-3.1,5.6-8.2,10.6-9.9l0-0.1c0.5-0.5,1-0.9,1.7-1.2
			c6.4-2.1,12.4-4.6,16-10.9c1.1-1.9,2.9-2.5,5-2.2C282.5,17,284,17.1,285.1,15.8z"/>
		<path class="st1" d="M291.2,23.1c0.3,0,0.7,0,1,0c0.8-1,2.5-1,2.6-2.6c0-1.2-1.7-1.9-1-3.3c0.3-0.6,0.8-1.1,1.5-1.2
			c1.4,0.2,2.7-0.2,3.8-1.1c2.7,1.2,3.7-1.6,5.6-2.4c1.1-0.4,1.6-1.2,1.2-2.4c0.9-1.5,2.8-1,4-2c1-0.3,2.2-0.9,2.3,1
			c-0.9,1.3-1.8,2.7-2.7,4c-2,2.9-1.7,5,2,6c-6.3,3.4-11.5,8.6-17.4,12.5c-3,1.9-6.3,3.8-9.6,5.5c-1.7,0.9-1.2,1.9-1,3
			c0.1,0.5,0,0.9-0.2,1.3c-1.9,1.3-4.3,0.3-6.3,1.3c-2.1,1.5-1.1,4.2-2.3,6c-3.5,1.5-3.3-1.4-3.9-3.3c3.3-7.8,9.1-13.6,15.3-19.1
			c0.4-0.3,0.8-0.7,1.2-1C288,23.4,289.8,23.7,291.2,23.1z"/>
		<path class="st2" d="M189,143.5c-2.8-1.5-5.1-3.6-7-6.2c-0.6-1.2,0.2-1.9,1.1-2.4c7.3-4.3,13.9-9.4,20.1-15.2
			c5.3-0.2,8.4-4,12-7.2c2-1.8,4-4.2,7.3-2.6c2,2.2,1.7,4.6,0.3,6.9c-3.9,0.9-6.7,3.3-9.3,6.1c-3.6,3.8-8.4,5.9-12.7,8.7
			c-3.2,2.1-6.8,3.5-9,6.9c-0.8,1.3-1.9,2.4-1.9,4C189.7,142.9,189.4,143.2,189,143.5z"/>
		<path class="st3" d="M318.2,22c1.2,0.8,3.2,0.6,3.2,2.7c-0.1,0.5-0.4,0.8-0.8,1.1c-0.4,0.2-0.9,0.6-1.3,0.4
			c-2.2-0.8-1.7,0.3-1.2,1.5c0.2,0.4,0,0.9-0.1,1.4c-0.1,0.4-0.4,0.8-0.7,1.2c-2.7,1.4-6.3,1.3-7.5,4.9c-1,1.6-2.5,2.6-4.2,3.3
			c-6.1,2.7-11.5,6.2-15.6,11.4c-0.5,0.4-1,0.8-1.6,1.2c-1.1,0.8-1.1,2.3-2,3.2c-0.4,0.3-0.8,0.5-1.2,0.6c-3.6,0.8-6.4,3-9.2,5.2
			c-2.3,1.8-4.7,3.9-7.8,1.5c-1.1-1-1.9-2.3-2.2-3.8c0-0.5,0.2-0.9,0.6-1.3c2.3,0.3,4.1-0.2,6-2c3.6-3.6,8.9-4.9,12.5-8.6
			c1.7-1.8,4-2.9,5.7-4.7c5.6-4.1,11.3-7.9,16.8-12.1c1.6-1.2,3.1-2.5,4.1-4.2c0.8-0.5,0.8-1.2,0.7-2
			C313.9,21.3,316.1,22.2,318.2,22z"/>
		<path class="st4" d="M249,111.4c-1.1-0.7-2-1.6-2-3c-0.7-2.4,0.1-4.5,1.9-5.8c5.7-4.2,10.7-9.3,16.9-12.8c0.3-0.4,0.6-0.7,1-1
			c4.7-3.9,10.7-5.8,15.3-10c1.8-1.6,4.4-0.8,6.3,1c0.4,0.7,0.5,1.4,0.3,2.2c-4.7,4.8-11.2,6.9-16.1,11.5
			c-5.8,5.4-13.7,8.2-18.1,15.2c-0.3,0.5-1.1,0.7-1.8,0.8c-0.7,0.2-0.9-0.8-1.5-0.6c0.5,0.5,0.6,1.1,0.5,1.8
			C251.1,111.8,249.9,111.1,249,111.4z"/>
		<path class="st5" d="M252.2,109.1c0.4-0.3,0.9-0.4,1.2-0.8c9.6-11.4,22.1-18.9,34.8-26.2c1.3,0.5,1.8,2.4,1.2,2.5
			c-2.9,0.5-0.9,2.6-1.6,3.7c-1.4,0.7-2.6,1.4-3.9,2.5c-4.6,4.1-9.5,7.9-14.8,11.1c-3,1.8-4.8,5.1-8.1,6.4c-2.8,2.5-7.5,3.2-7.8,8.1
			c-0.7,0.3-1.4,0.2-2-0.3c-0.7-1.5-1.5-3.1-2.2-4.6c0.5-1.3,1.4-0.6,2.2-0.4C251.9,110.5,251.5,109.5,252.2,109.1z"/>
		<path class="st6" d="M291.4,63c1.4,5.2,3.5,10.4-0.9,15.2c-0.4,0.3-0.8,0.4-1.2,0.2c-1.2-1.1-0.4-2.2,0-3.4
			c-1.1,0.4-2.2,0.6-3.3,0.8c-4.9,1.4-8.9,4.2-12.9,7.3c-1.8,1.4-3.5,4.3-6.7,2.3c-0.8-1.7-0.6-3.6-0.6-5.4c0.1-1.9-0.1-3.8,0.7-5.5
			c0.3-0.5,0.7-0.7,1.2-0.8c1.5,2.8,3.1,2.9,5.4,0.7c2.7-2.7,5.8-5.1,9.3-6.7c2.1-0.9,2.8-3,3.6-4.6C287.9,59.1,289.5,59.9,291.4,63
			z"/>
		<path class="st7" d="M318.2,22c-1.7,1.6-4.4,0.2-6,2c-0.9,0.8-2.5,0.2-3,1.7c-3.9,2.5-7.3,5.6-10.7,8.6c-1.9,1.7-4.2,2.5-6.4,3.5
			c-1.3,1-2.4,2.1-3.5,3.3c-2.4,2.5-4.1,1.7-5.3-1.2c-1-0.1-2.7-0.7-2.2-1.3c0.9-1.1,1.3-3,3.2-3.1c0.2,0,0.4,0.3,0.7,0.5
			c2.7-7.1,11.9-5.1,15.6-11.2c2.2-3.7,6.6-5.2,10.9-6C313.8,19.6,316.3,20.3,318.2,22z"/>
		<path class="st8" d="M286.3,159c0.6,1.7,1.3,3.3,1.9,5c-1.2,1.5,1.3,6.7-4.1,4c-1.1-0.6-1.8,0.5-2.3,1.3c-2.9,4.6-8.6,5-12.5,8.1
			c-0.3,0.3-1,0-1.4-0.2c-1-1.3-3.2-1.2-3.8-3c-0.4-2.7,1.8-5.6,2.7-6.1c5.1-3,8.5-7.9,13.2-11.1C282.5,155.3,285.1,155.6,286.3,159
			z"/>
		<path class="st9" d="M287.1,188.1c-4.1-0.8-7.5-2.9-10.9-5c-0.8-0.9-0.5-1.7,0.4-2.3c3.1-0.4,5.7-2.2,8.4-3.6
			c2.3-1.7,2.3-1.7,4.7-0.7c0.2,0.1,0.2,0.5,0.2,0.5c-0.2-0.6,0.4-1.4-0.1-1.9c-2.6-2.8-2.7-5.8-0.6-8.9c1.1,1.1,1.8,2.4,2,3.9
			c0.1,1.4,0.8,2.4,2,3.2c2.3,2.9,4.7,5.9,7,8.8c0,0.9-0.2,1.7-1.1,2.2c-1.3,0.7-1.4-2.1-2.8-0.9
			C295.2,188.8,294.4,189.2,287.1,188.1z"/>
		<path class="st10" d="M231.1,127c1.1,1.6,2.2,3.3,3.4,4.9c-0.2,0.6-0.6,1.1-1.1,1.4c-1.1,0.3-2.1-0.1-3-0.7
			c-0.3-0.2-0.6-0.5-0.8-0.8c-0.6-0.7-1.3-0.8-2.1-0.5c-3,2.1-6,4.2-8.4,6.8c-1.8,2-3.8,3.6-6.4,4.5c-3.3,1.1-5.4,3.7-7.2,6.5
			c-2,0.9-3.7-0.4-5.5-0.7c-1.3-0.3-3.3,0.4-3.7-1.6c-0.4-1.8,1.2-2.7,2.5-3.3c6.5-3,11.1-8.9,17.6-11.8c3.3-1.5,4.6-5.4,8.1-7
			C227.8,123.1,230.1,122.9,231.1,127z"/>
		<path class="st11" d="M282,139.1c0.3,2.8,1.7,5.6,0.4,8.6c0.9,2.5-0.4,4.1-2.1,5.6c-0.4,0.3-0.8,0.5-1.2,0.7
			c-8.5,1-13.7,7.1-19.3,12.5c-0.6,0.5-0.8,1.4-1.7,1.7c-1.8-0.9-3-2.4-4-4.1c-0.9-2.2-1.2-4.7,1.2-5.7c6.9-2.8,12-8.2,18.5-11.6
			c0.9-0.5,1.8-0.9,2.7-1.2c0.4-0.1,0.9-0.1,1.4,0c0.5,0.3,0.9,0.7,1,1.3c0.6-0.9-0.2-1.4-0.4-2.1c-0.3-0.9-0.4-1.8-0.4-2.7
			c0-0.9,0-1.8,0.2-2.7c0.1-0.4,0.3-0.8,0.5-1.2C280.1,137.1,281,138.5,282,139.1z"/>
		<path class="st12" d="M291.4,63c-2.9-2.8-4.1,0.2-5.1,1.8c-4.4,6.4-11.9,8.7-17.1,14.2c-1.5-2-0.9-3.5-1.1-4.9
			c-1.4-2.4,0.1-3.9,1.8-4.9c3.9-2.3,6.6-6,10.5-8.3c2.6-1.5,3.1-4.6,4.7-6.8c0.3,0,0.7,0,1,0c0.7-0.3-0.2,1.7,1.1,0.7
			c0.4-0.1,0.7-0.1,1.1-0.1c1.5,0.1,3,0.3,3.6,2c0.3,1,0,1.8-0.5,2.6C291.4,60.5,291.4,61.7,291.4,63z"/>
		<path class="st4" d="M231.1,127c-2.6-3-6.4-2.8-9.7,0.8c-6.3,6.9-14.5,11.3-22,16.6c-1,0.7-2.7,0.6-2.6,2.5
			c1.1,1.3,2.3-1.3,3.4,0.1c0.7,2.1,4.8,2.2,3.4,5.6c-0.2,0.2-0.4,0.3-0.5,0.5c-5.2-0.8-8-5.2-12-7.9c-0.6-1.7,0.1-2.8,1.6-3.6
			c3.8-0.4,6.7-2.1,9.7-4.4c5.7-4.4,11.9-8.2,17.5-12.9c1.5-1.3,3.1-2.5,4.6-3.8c2-0.8,3.4,0.2,4.8,1.5
			C230.1,123.6,231.4,125,231.1,127z"/>
		<path class="st13" d="M332.1,34.1c2.9,2.3,4.7,5.4,6.6,8.5c1,1.6,2.7,2.9,1.9,5.1c-2.2-1.1-4.1,3.4-6.8,0.2
			c-1.6-1.9-4.3,0.9-6.5,0.2c-1.5,1.6-3.1,2.3-5,0.6c-0.5-1.6-2.2-1.9-3.2-3C323.5,42,325.6,35.5,332.1,34.1z"/>
		<path class="st14" d="M246,155.1c-0.6-0.7-1.2-1.4-1.8-2.2c-0.7-2.4-0.1-4,2.1-5.8c4-3.3,8.9-5.6,12.1-9.9
			c0.3-0.3,0.7-0.6,1.2-0.7c4.9-0.4,7.4-4.6,11.1-6.9c0.7-0.7,2-0.8,2.3-1.7c1.8-6.1,3.3-1.4,4.9,0.1c0.2,0.6,0.3,1.1,0.5,1.7
			c0.5,2.2-1.2,2.8-2.5,3.7c-7.9,5.6-15,12.4-23.5,17.1c-2,1.1-3.5,2.9-5,4.8C246.8,155.5,246.4,155.4,246,155.1z"/>
		<path class="st15" d="M221.2,165c-2.1-0.4-3.6-1.6-5-3c-2.2-4.3,2.6-5.1,3.8-7.7c1.9-1.9,3.3-4,3.4-6.8c0.1-0.7,0.3-1.3,0.9-1.7
			c4.5,1.4,7.9,4.1,10.4,8.1c-2.8,2.8-4.8,6.4-8.1,8.7C224.9,163.7,223.4,165.1,221.2,165z"/>
		<path class="st16" d="M243.3,166c3.1,3.8,3.8,8.5,4.8,13.1c-0.8,2.4,0.7,5.7-2.9,7c-3.1-4.1-6.3-8.3-10.2-11.7
			c-1.4-3.6,0-6.3,2.7-8.8C240,163.3,241.7,163.6,243.3,166z"/>
		<path class="st17" d="M289.1,166.2c0.2,2.7-1.6,5.7,1.4,8.2c1,0.8,0.6,1.3-1.9,1.5c-1.6,0.1-1.6,2.6-3.5,2.3
			c-0.8-0.9-0.4-2.8-2.1-2.9c-1.6-0.1-2.2,1.3-2.3,2.6c-0.2,2.4-3.1,1.4-3.6,3.3c-0.8,0.4-1,1.2-1,2c-0.4-0.2-0.7-0.4-1.1-0.6
			c-0.9-2.1-2.4-3.5-4.9-3.4c-1.2-0.1-1.8-1-2.3-1.9c4.2-0.9,5.9-6.4,11-5.7c1.1,0.1,1.1-1.8,1.6-2.8c2.1-3.7,3.6-3.8,6.5,0.7
			c-0.6-2.7-0.8-4.5,1.2-5.4C288.5,164.7,288.8,165.4,289.1,166.2z"/>
		<path class="st18" d="M260.2,107.1c2.3,0,3.3-2,4.8-3.3c6.6-5.6,14.3-9.9,20.7-15.9c0.3-0.3,0.9,1.1,1.6,0.2c1-0.8,2-0.8,3.1,0
			c0,0.6,0.1,1.3,0.1,1.9c-0.5,0.8-1.3,1-2,1.3c-0.8,0.3-1.2,1.1-1.5,1.8c-2.2,3.6-6,5.6-9.2,8.1c-2.4,1.8-4.5,3.7-6.2,6.3
			c-1.3,1.2-3,1.6-4.7,2.1c-1.8,0-3.6,0.1-5.3,0.1C260.4,109,259.8,108.3,260.2,107.1z"/>
		<path class="st19" d="M281,120.2c-2.3-2.3-4.6-4.5-6.9-6.8c-0.2-0.3-0.4-0.5-0.3-0.8c0-0.3,0.1-0.5,0.1-0.5
			c4.9-3.1,9.2-6.9,13.7-10.5c2.4-1.9,4.8-3.1,7.5-0.6c2.1,2.8,1.5,5.8-1.8,7.3c-2.9,1.3-4.9,4-7.8,5.2c-1.6,0.7-1.1,2.2-0.9,3.5
			c-0.4,1.5-1.4,2.5-2.8,3.1C281.5,120.1,281.2,120.1,281,120.2z"/>
		<path class="st20" d="M277.2,146.1c-7.2,3.7-12.6,10.4-20.6,12.8c-3,0.9-1.4,3.6-2.5,5.3c-1.7-1.9-3.4-3.8-5.1-5.7
			c-0.5-1.1,0-1.9,0.8-2.5c0.4-0.2,0.9-0.3,1.4-0.3c2.3,0.7,4.2-0.2,5.7-1.9c4.4-4.5,9.6-8,14.9-11.2c1.8-1.1,3.7-3.1,6.1-0.8
			C278.3,143.3,278.3,144.8,277.2,146.1z"/>
		<path class="st21" d="M260.2,31c-0.6,0-1.3,0-1.9,0c1.2-5.7-1.8-9.9-5.2-13.9c-0.6-1.6,0.1-2.7,1.4-3.5c1.6-0.7,2.9,2.2,4.7,0.4
			c4.7,0.3,9.3,0.6,14,1c1.6,1.1,1.5,2.2-0.2,2.8c-3.8,1.5-5.7,5.4-9.4,6.9C260.9,25.9,262.5,29.6,260.2,31z"/>
		<path class="st22" d="M260.2,31c-0.9-8.6,7.5-9.5,11.7-13.8c0.7-0.7,2-0.6,1.3-2.2c4.1-0.9,7.9,2.1,11.9,0.7
			c-0.4,0.5-0.9,1.3-1.3,1.3c-7,0-9.3,5.5-12.5,10.1c-0.3,0.5-1.2,1.3-1.5,1.1C265.9,26.7,263.6,30.9,260.2,31z"/>
		<path class="st23" d="M286,128.3c-1.7-2.7-3.4-5.4-5.1-8.1c0,0,0.3-0.2,0.3-0.2c0.7-0.5,1.6-0.8,2.3-1.2c3-3.6,7.8-5.2,10.3-9.4
			c0.6-1,1.4,0.4,2.1,0c0.4-0.7,0.7-1.3,1.5-1.6c1.5,0.1,1.8,1.6,2.8,2.3c0,0.9,0,1.7,0,2.6c0.9,2.5-0.6,4-2.1,5.6
			c-2.4,2.5-6.2,3.5-7.2,7.6C290.6,127.1,287.1,126.1,286,128.3z"/>
		<path class="st24" d="M298.1,68.3c-1.1-1.6-3-2.7-3-5c-0.3-0.6-0.8-1.6-0.5-1.8c3.7-2.7,4.6-8.4,9.8-9.6c3.2-0.8,5.1-4.4,8.8-4.4
			c3,0,3.2,2.6,4.2,4.4c0.2,1.7-0.8,2.6-2.3,3c-1.1,0.1-2.1-0.3-3.1-0.2c-1.1-0.1-1.2,0.6-1.4,1.4c-2.3,5-8.1,6.5-11,10.9
			C299.2,67.5,298.7,68,298.1,68.3z"/>
		<path class="st25" d="M313.2,47.9c-3.5,2.1-6.9,4.3-10.6,6.2c-3.4,1.8-5.8,5.5-7.6,9.1c-1.5-1-1.8-2.6-1.9-4.2
			c-1-1.1-1-2.4-0.9-3.7c3.8-4.2,8.5-7.4,12.6-11.3c0.9-0.9,2.4-1,3.7-0.6c1.3,2,1.6-1.7,2.7-0.5C312.7,44.3,314.4,45.6,313.2,47.9z
			"/>
		<path class="st26" d="M251.2,156.1c-0.3,0-0.7,0-1,0c-1-0.3-2.1-0.3-3-1c0.5-4.8,4.9-6.5,8-8c6.3-3,10.8-8.1,16.2-12.1
			c2.3-1.7,5.6-2.3,6.9-5.2c1.4,1,1.7,2.5,1.9,4.1c0.7,1.3,0.3,2.4-0.7,3.3c-6.8,0.9-11.4,5.6-16.4,9.5
			C259.2,149.8,255.4,153.2,251.2,156.1z"/>
		<path class="st27" d="M294.2,102.1c-1.7-2.4-3.5-1.6-5.3-0.1c-3.8,3.1-7.6,6.1-11.3,9.3c-1.1,0.9-2,1.7-3.4,0.8
			c-2-4.2,0.2-6.6,3.4-9c3.4-2.5,7.1-4.7,10.1-7.8c1.1,0,2-0.4,2-1.7c0.4-1,0.6-2.1,1.7-2.7c2,2.9,3.8,5.9,4.9,9.3
			C295.6,100.8,294.8,101.4,294.2,102.1z"/>
		<path class="st28" d="M242.8,102.2c-2.3-1.5-3.7-3.7-5-6c5.7-1.5,10.7-4.3,14.8-8.5c0.1-1.4-0.2-2.9,0.5-4.3
			c1.1-2.1,2.1-1.7,2.9,0.1c0.7-0.5,0.1-1.4,0.6-1.9c0.7-1,1.2-2.2,2.7-1.5c1.2,1.4,1.6,3.1,1.8,4.9c0.1,1,0,2-0.3,3
			C255.9,94,250.6,99.8,242.8,102.2z"/>
		<path class="st29" d="M242.8,102.2c6.2-4.2,12-9,17.5-14.2c1-1,1,1.8,2.1,0.5c1.3-0.4,2.4,0.1,3.4,1c0.1,0.2,0.2,0.4,0.3,0.5
			c-0.1,0.7,0,1.8-0.2,1.9c-5.7,1.1-8.4,6.4-13.1,8.9c-3.1,1.6-4.9,4.3-5.8,7.5C245.1,106.7,243.7,104.6,242.8,102.2z"/>
		<path class="st30" d="M258.1,168.2c0.4-2.6,1.5-4.6,3.9-6.1c3.1-1.9,6-4.1,8.7-6.4c2.5-2.2,4.9-4.2,8.4-2.6
			c2.2,1.4,2.7,3.2,0.2,4.4c-5.2,2.6-9.2,6.8-13.6,10.3c-1.7,1.4-3.4,2.5-5.7,2.5C259.4,169.6,258.8,168.9,258.1,168.2z"/>
		<path class="st31" d="M286,128.3c1.2-1.3-0.2-2.4-0.4-3.6c1.9-1,3,1.2,4.5,0.9c1.8-0.7-1.9-1.4,0.4-3.2c3.6-2.8,8.8-4.5,9.9-9.9
			c1.2,2.4,2.4,4.8,2.7,7.5c-0.2,4.4-4.2,5.4-7,6.7c-2.2,1-3.3,1.5-2.8,4c0.2,0.9-0.3,1.9-1.2,2.6c-1.3,0.8-2.6,0.3-3.9-0.2
			C287.1,131.7,286.3,130.1,286,128.3z"/>
		<path class="st32" d="M188.8,87.2c-1.2-1.1-2.4-2.1-3.6-3.2c1.2-4.9,7.2-10.2,11.3-10c3.3,1.5,6.5,3,8.8,5.9
			c0.5,2-1.2,1.8-2.1,1.6c-4.4-0.8-6.3,1.7-7.7,5.2c-0.6,1.6-1,3.7-3.5,3.6l0-0.1C191.5,88.6,190.5,87.6,188.8,87.2z"/>
		<path class="st33" d="M224.3,145.8c0,0.8-0.1,1.5-0.1,2.3c-1.9,0.7-3.9,0.1-5.9,1.7c-2.5,2.1-4.4,4.2-5.1,7.3c0.3,1,0.9,2-0.1,2.9
			c-3.8-1.7-7.6-3.3-10.1-6.8c0,0,0.2-0.2,0.2-0.2c0.6-0.6,1.2-1.4,2.1-1.7c5.1-2.3,7.3-8,12.5-10.3c0.9-0.5,1.8-0.7,2.6,0.2
			C221.7,142.7,224,143.4,224.3,145.8z"/>
		<path class="st34" d="M251.2,116.1c0.6,0,1.3,0,1.9,0c2.4-2,5-3.7,7.6-5.6c0.5,0,0.9,0.2,1.2,0.6c2.6,2.6,6.5,3.5,8.4,6.9
			c-0.7,0.9-1.6,1-2.6,0.8c-0.6,0.1-1.2-1.1-1.4-0.6c-1.3,2.7-4.1,3.6-6.2,5.2c-1.6,0.4-1,2.3-2,3.1c-0.9,0.7-2,0.9-3.1,0.9
			C253.7,123.6,252.5,119.8,251.2,116.1z"/>
		<path class="st35" d="M192,90.3c2.7-2,1.8-5.9,4.8-8.3c2.3-1.8,3.6-3.2,6.5-1.6c0.5,0.3,1.7,0.5,2.1-0.6c2.7,0,4.4,1.3,5,3.9
			c-4,5.6-10,7.4-16.3,8.6C193.3,91.7,192.7,91,192,90.3z"/>
		<path class="st36" d="M203.2,120.1c-5.2,7.1-12.1,11.9-19.9,15.7c-0.5,0.2-0.8,1-1.2,1.5c-1.3-0.7-2.3-1.6-3-2.9
			c-0.3-0.7-0.5-1.5-0.2-2.3c3.1-1.5,5.9-3.4,8-6.3c3.3-4.8,8.5-4.1,13.3-4.7c0.7-0.7,1.4-1.4,2.1-2.1
			C203.1,118.9,203.5,119.2,203.2,120.1z"/>
		<path class="st37" d="M214.1,87.1c1.8,1.7,3.4,3.5,4,6c-3,0-10.8,6-11.7,9.2c-0.4,1.3-0.6,2.6-1,3.8c-1.1,1.2,0.5,4-2.4,4.1
			c-1.3-3.3-2.6-6.6-3.8-9.9c-0.6-2.3,0.5-3.9,2.2-5.1c3.4-2.4,6.8-4.7,10.2-6.4c-1,0-2.9,0.2-2.6-1.9c0.3-1.6,1.8-0.9,2.9-0.5
			C212.6,86.5,213.4,86.5,214.1,87.1z"/>
		<path class="st38" d="M303.3,131.1c0.2,4.3-1.2,8.4-2.4,12.4c-0.8,2.6-2.1,3.1-4.2,1.6c-2.2-1.6-4.6-3.2-5.5-6
			c0.6-1.1-0.2-2.3,0.5-3.4c2.1-3.4,6-4.3,9-6.4C302.7,127.9,302.4,130.5,303.3,131.1z"/>
		<path class="st39" d="M214.1,87.1c-1.5,0-2.9,0-4.4,0c0.1,1.7,2,0.5,2.6,1.4c-3.3,5.2-11,5.4-13.2,11.8c-1.7-2.6-3.4-5.2-5.1-7.8
			c4.5-1.5,8.1-4.9,13-5.8c0.9-0.2,1.3-2.9,3.4-2.8C211.4,85,213.5,85.2,214.1,87.1z"/>
		<path class="st40" d="M314.1,77.1c-2.7-3-7.8-1.2-10.1-5c0.5-0.9,1.3-1.4,2.2-1.7c4.9-1.1,7.8-5.1,11.6-7.8
			c2.1-1.5,3.7-3.8,5.3-5.9c0.7-0.3,1.3-0.3,2,0c0.6,0.6,0.8,1.3,0.7,2.2c-0.1,0.3-0.4,0.7,0,1.1c-0.1-0.5,0.2-0.9,0.6-1.1
			c1.7,0.4,1.9,1.8,2.2,3.2c-2.5,4.2-7.4,5.4-10.5,8.9c-1.3,1.4-2.6,2.5-2.2,4.6C315.6,76.5,315.5,77.5,314.1,77.1z"/>
		<path class="st41" d="M240.3,77c3.3,2.5,6.7,4.9,8.4,8.9c-1.4,1.2-2.4-0.3-3.6-0.4c-3.2-0.4-5.9,0.4-7,3.8c-0.6,1.8-1,3.5-3,4.1
			c-3-1.9-5.7-4.2-8-7c1.5-3.7,5.5-3.7,8.4-5.2c0.9-0.5,2.8,0.8,1.9-1.9C236.9,78.2,238.3,76.6,240.3,77z"/>
		<path class="st42" d="M203.2,120.1c-0.3-0.3-0.6-0.7-0.9-1c0.3-1.7,0.6-3.3,0.9-5c0.4-0.3,0.8-0.4,1.3-0.4c3.5,0.8,5.3-2,7.6-3.7
			c3.2-2.3,5.7-5.9,10.2-6c2.3,2.6,2.8,5.9,3.7,9.1c-0.7,1.2-1.5,1.8-2.2,0.1c-0.5-1.1-0.4-2.4-1.6-3.1c-4.8,0-6.7,4.4-9.9,6.8
			C209.5,119,207.2,121.7,203.2,120.1z"/>
		<path class="st2" d="M332.1,34.1c-5.1,3.1-7.1,9.4-12.8,11.8c-0.2,0.1-0.4,0.3-0.6,0.4c-2.2-0.3-3.3-2-4.4-3.6
			c-0.6-1.1-1-2.2-0.5-3.5c0.4-0.6,0.9-1,1.5-1.4c2.6-3,6.2-4.3,9.6-6.1c0.9-0.2,1.8,0,2.7,0.2c1.2,0.5,2.5,0.6,3.8,1.1
			C331.6,33.3,331.9,33.7,332.1,34.1z"/>
		<path class="st43" d="M335,71c0.6,1.3,1.3,2.5,1,4c-4.3,3.6-8.9,6.7-14.1,8.8c-0.9,0.3-1,1.5-2,1.7c-0.7,0.2-1.4,0.1-2-0.4
			c-0.9-1.1-0.9-2.5-0.9-3.8c-0.5-2.1,1.4-2.8,2.5-3.8c3-2.8,6.7-4.8,9.7-7.6C331.5,67.8,333.6,68,335,71z"/>
		<path class="st44" d="M260.1,170.3c4.5-3.7,9.1-7.3,13.6-11.1c1.2-1.1,2.6-1.5,4-1.8c3-0.8,2.7-2.3,1.5-4.4h0
			c2.1-0.7,4.2-0.9,5.8,1c0.4,1.7,0.9,3.3,1.3,5c-4.2-3.1-7.6-1.7-9.3,3.4c-0.9,2.7-4.2,2.7-6.3,4c-2,1.3-5,1.1-2.8,4.8
			c0.6,1.1-0.1,2.8-2,1.9c-1.5-0.7-1.7,0-1.8,1.1C262.5,173.2,261.1,172,260.1,170.3z"/>
		<path class="st45" d="M245.6,138.9c7.3-1.4,8.2-2.3,9.5-9.9c3.8-0.1,3.1,3.5,4.5,5.4c0.2,0.5,0.2,0.9,0.2,1.4
			c-0.1,0.5-0.3,0.9-0.7,1.2l0,0c-1,0.5-2.6-0.2-3.2,0.9c-2.4,4.3-8.1,5-10.4,9.5c-0.6,1.3-2.6,2.7-4.7,1.7
			c-1.6-1.3-3.2-2.5-4.8-3.8C237.7,141,241.2,139.3,245.6,138.9z"/>
		<path class="st46" d="M314.2,39.1c0.3,1.1,0.6,2.3,0.8,3.4c-1.3,0.7-2.7,0.2-4,0.6c-0.8-0.1-0.4,2.1-1.8,1c-1.3-1.4-0.7-2.8,0.3-4
			c1.1-1.3,1.9-2.7,1.9-4.5c0.2-3.6,2.9-4.6,5.7-5.5c0-0.3,0-0.7,0-1c1.2-1.4,2.7-2.6,4-3.9c0,0,0.3-0.3,0.3-0.3
			c2.7,0.8,4.6,2.5,5.9,5c0.7,2.1-1.2,1.7-2.2,2.3c-2.4,3.2-7.2,3.1-9,7C315.5,38.3,314.8,38.3,314.2,39.1z"/>
		<path class="st47" d="M204.2,114.1c-0.3,0-0.6,0-1,0c-0.1-1.3-0.2-2.6-0.3-3.9c0.4-1.4,0.8-2.7,1.3-4.1c3.7-5.2,8.7-8.6,14.4-11.2
			c1.9,1.2,1.9,3.4,2.6,5.2C216.9,106.5,209.8,109.3,204.2,114.1z"/>
		<path class="st48" d="M294.2,102.1c0-1.3,0.7-2,2-2c1.9,3.1,3.8,6.2,4.1,10c-1.6,0.2-2.1-1.3-3.1-2c-0.2-0.2-0.3-0.4-0.3-0.4
			c-0.1-0.4-0.2-0.4-0.2,0c0,0.8,0.1,1.6-0.5,2.3c0.1,0.3,0.3,0.9,0.3,0.9c-3.2,1.4-9.9,6.3-12.3,9.1c-0.8-1-0.7-2,0-3
			c-3.5-2.1-1.6-3.5,0.6-4.8c3.9-2.3,7.7-4.7,10.5-8.4C296.4,102.5,295.2,102.3,294.2,102.1z"/>
		<path class="st49" d="M243.3,166c-3.2-1.6-7.6,1.2-7.5,5c0,1.3-0.3,2.2-0.7,3.2c-2.3-1.7-4.7-3.3-7-5c-0.3-1.3-0.7-2.5-1.2-3.8
			c-0.3-0.8-0.3-2.2,0.3-2.2c4.5,0.2,7.4-5.5,12.4-3.4C241.4,161.6,242.6,163.7,243.3,166z"/>
		<path class="st50" d="M288.2,95c0.2,3.3-3.2,3.5-4.8,5.3c-1.6,1.8-4.2,2.7-5.8,4.5c-1.1,1.2-5.4,1.7-1.8,4.9
			c0.7,0.7-2.2,0.7-1.6,2.3c0,0.4-0.1,0.9-0.1,1.3c-1.3-0.7-2.7-1.3-4-2c-0.8-0.8,0.9-1.7-0.1-2.5c-0.1-1,0.7-1.3,1.3-1.8
			c1.1-6.7,8.4-7.2,11.8-11.6c0.8-1.1,2.5-1.8,3.2-3.4C288.5,92,289.2,92.9,288.2,95z"/>
		<path class="st51" d="M320.2,85.1c4.5-4.6,10.1-7.4,15.8-10c0.5,1.3,1.3,2.5,1,4c-1.9,5.3-5.9,8.1-11.2,9.4
			c-2.2-0.9-0.1,1.9-1.5,1.7c-1.6,0.4-2-1.2-3.1-1.7c-0.8-0.7-1.1-1.7-1.1-2.8C320.1,85.5,320.2,85.3,320.2,85.1z"/>
		<path class="st52" d="M267.2,118.1c1.1,0,2.1-0.1,3.2-0.1c3.5,2.6,5.7,6.2,7.5,10.1c-1.7,0-1.7-2-3.6-2.6c1.5,3.5-0.8,4-3.1,4.6
			c-1.4-0.6-1.8-1.6-1.2-2.8c-2.8,2-4.1,6.8-9.2,5.6c-1.5-3.2-0.4-5.5,2.1-7.8C264.9,123.2,267.7,121.6,267.2,118.1z"/>
		<path class="st53" d="M335,71c-1.5-0.8-2.5-2.7-4.7-0.7c-4.3,3.9-8.9,7.4-13.3,11.1c-1-1.4-2-2.8-3-4.2c0.9-0.4,1.1-1.2,1.1-2.1
			c4.4-4.1,10.2-6.4,14.3-11c0.6-0.7,1.8-0.9,2.7,0C333.4,66.3,335.1,68.3,335,71z"/>
		<path class="st54" d="M182,81.4c-3.2-0.6-5.2-3.1-7.8-4.5c-0.5-3.3,0.2-5.7,4.2-5.6c2.1,0.1,2.6-1.9,4-2.6
			c3.4,0.2,6.3,1.7,9.1,3.3c-0.5,1-1.6,1.1-2.2,2.6C188.2,77.6,185.5,80.2,182,81.4z"/>
		<path class="st23" d="M239.6,159.9c-2.9,0.8-6.1,1-7.9,4c-1.1,1.8-2.8,0.4-4.9-0.8c1.4,2.6,3,4.3,1.2,6.2
			c-2.4-1.3-4.9-2.3-6.9-4.2c3.6-3.2,8.4-5.1,10.4-10.1c0.5-1.2,2-0.8,3.1-1C236.9,155.4,238.3,157.6,239.6,159.9z"/>
		<path class="st55" d="M287.1,188.1c3.7-0.3,8.4,0.9,7.8-5.6c0-0.1,0.8-0.3,1.3-0.5c1.3,0.2,0.7,3.4,3,2c0-0.8,0.2-1.6,1-2
			c3.7,2.2,6.5,5.6,10.8,7.2C305.6,192.1,295.6,191.5,287.1,188.1z"/>
		<path class="st56" d="M250,73.1c-1.6-2.3-3.2-4.6-4.8-6.9c-1.2-2,0.6-2.9,1.6-4c1.5-1.7,3.9-2.5,4.7-4.8c0.2-0.7,0.4-1.3,1.2-1.6
			c2.3,0.8,4.4,2,6.2,3.6c0.5,1.9,0.7,3.5-1.7,4.2c-0.4,0.4-1.1-0.9-1.1,0C256,66.7,252.4,72.6,250,73.1z"/>
		<path class="st57" d="M258.2,31.2c-3.7,3-5.7,7.6-9.8,10.2c-1.1,0.7-0.6,1.7-0.2,2.7c0.4,1.6-0.4,2.2-1.9,2
			c-1.1-1.5-3-2.5-3.2-4.6c-1.2-3.7,2.1-5.2,3.6-7.7c0.2-0.4,1-0.4,1.2-0.7c2-3.1,1.9-3.1,5.3-2.9C254.8,30.6,256.4,31.7,258.2,31.2
			z"/>
		<path class="st58" d="M303.3,131.1c-0.9,0-1-1.8-2.3-0.9c-2.9,2-5.9,3.9-8.8,5.8c-1-0.8-1.7-1.7-1-3c0.2-6.1,5.2-8.1,9.4-10.3
			c1.4-0.8,1.3-2.2,2.4-2.7C303.8,123.7,304.5,127.4,303.3,131.1z"/>
		<path class="st39" d="M228.3,69.7c2.2,0.8,4.4,1.5,6.1,3.2c-3.8,1.9-6,5.5-9.1,8.1c-1,0.9-2,1.8-3.5,1.2c-2.8-1-4.5-3.4-6.6-5.3
			c-0.3-1.3,0.6-2,1.5-2.1C221,74,224.4,71.2,228.3,69.7z"/>
		<path class="st59" d="M253.2,30.2c-1.5,3.2-3.6-0.8-5.4,0.5c-0.3,2.2,2.1,0.7,2.7,2.3c-4.8,0.7-5.4,5.2-7.5,8.5
			c-2.9-2.4-4.6-5.4-5-9.1c-0.4-0.7-0.4-1.4-0.2-2.1c0.5-0.6,1.1-0.8,1.8-0.7c0.7-0.5,1,1.7,1.9,0.3c0.2-1-0.1-2.2,0.7-3
			C245.9,27.9,249.5,29,253.2,30.2z"/>
		<path class="st60" d="M325.2,88.1c4.9-1.7,8.5-5.1,11.8-9c0.8,4.3,2.4,8.6,0.6,13.1c-1.4,1.1-3-0.2-4.4,0.3
			c-1.5,0.1-3-0.3-4.5-0.6c-0.4-0.1-0.9-0.2-1.3-0.4C326,90.7,323.9,90.4,325.2,88.1z"/>
		<path class="st61" d="M332.1,64.1c-4.1,2-6.7,6-10.8,8c-2,1-3.8,2.6-6.1,3c-1.3-1.2-1.5-2.6,0-3.7c4.3-3.1,8.7-6.2,13-9.3
			c0-3.5,0.3-3.7,3.8-2C332.6,61.4,332.4,62.7,332.1,64.1z"/>
		<path class="st62" d="M228.3,69.7c-2.6,3.3-6.1,4.9-10.2,5.6c-1,0.2-1.9,1-2.9,1.6c-1.4-0.5-2.4-1.5-3.1-2.7c-0.5-5.1,4-5.3,6.9-7
			c1.2-0.6,2.9-0.7,4.4-0.3C225,67.9,227.2,67.8,228.3,69.7z"/>
		<path class="st63" d="M235,93.4c2.1-1.7,1.1-4.6,2.5-6.6c2.1-3,6.9-3.3,11.2-0.9c0.8,0.4,0.7,1.2,0.8,2c-4,2.9-6.9,7.6-12.7,7.3
			C236.2,94.6,235.6,94,235,93.4z"/>
		<path class="st64" d="M162,68.3c-4.3-3.9-6.8-8.7-6.6-15c3.7,3.9,8.3,6.5,12.6,9.7c-0.4,0.6-0.6,1.2-0.9,1.7
			c-0.2,0.4-0.5,0.7-0.8,1c-0.6,0.6-1.2,1.2-1.9,1.7C163.7,68,162.8,68.2,162,68.3z"/>
		<path class="st63" d="M204.2,114.1c0.2-0.6,0.2-1.5,0.6-1.8c5.4-4.1,10.9-8.1,16.4-12.2c0.2,1.4,1.6,2.4,1.1,4
			c-5.1,2.8-9.3,6.8-13.9,10.4C206.7,115.8,205.4,116.5,204.2,114.1z"/>
		<path class="st65" d="M179.2,132.1c0,0.8-0.1,1.6-0.1,2.4c-2.2-2.7-4.8-5.3-5-9.1c-0.2-0.7-0.6-2.1,0.1-2.1c2.3,0.1,2.9-1,3.3-3
			c0.4-2.7,2.4-3.2,4.8-2.5c0.7,0.2,1.3,0.4,2,0.8c0.6,0.4,1.1,0.9,1.4,1.5c2.1,5.5,1.5,6.4-4.7,7.5c-0.5,0.8-1-2-1.5,0
			c-0.3,0.9-0.3,1.9,0,2.8c0,0.2,0.1,0.4,0.1,0.6C179.7,131.4,179.5,131.8,179.2,132.1z"/>
		<path class="st66" d="M325.2,57.1c-0.7,0-1.3,0-2,0c-2.4-0.2-4.5,2.5-7.1,0.9c-0.4-0.2-0.8-0.4-1.2-0.7c-0.7-1-1.4-2-0.7-3.2
			c1.4,0,2.4-0.6,3-1.9c0.3-2,2.3-2.2,3.4-3.3c0.5-0.4,1-0.7,1.6-0.8c1.7,1.5,3.4,0,5.1,0c0.9,1.9,2.3,3.6,2.1,5.9
			c-1,0.7-1.9,0.3-2.7-0.3c-1.1-0.8-1.2-1.9-0.9-3.1C324.9,52.7,328.1,55.2,325.2,57.1z"/>
		<path class="st67" d="M259.1,80.1c-0.6,0.7-1.3,1.3-1.9,2c-0.5-0.4-0.4-1.1-0.6-1.7c-0.1,0.3,0.1,0.7,0.1,1
			c-0.2,1.2,0.4,2.5-0.5,3.6c-0.6-0.7-1.1-1.5-1.7-2.2c-1.4,1.5-1.3,3.4-1.3,5.2c-0.3,0.3-0.6,0.4-0.9,0c0-3.4,0-6.8-0.9-10.1
			c0.1-4.5,4.5-7.5,4.5-12c0.8-1.1,1.9-1.5,3.2-1.2c1.4,2,0.3,4.2,0.7,6.3c-0.4,2.1-0.4,4.2,0.2,6.3C260.1,78.4,260,79.4,259.1,80.1
			z"/>
		<path class="st68" d="M240.8,149.2c2.2-0.7,3.3-2.3,4.8-4c3.2-3.7,7.6-6.4,11.5-9.3c0.3-0.2,1.4,0.8,2.1,1.2
			c-1.7,5.9-7.9,7-11.6,10.7c-1.6,1.7-2.5,3.3-3.3,5.2C243.1,151.7,241.9,150.4,240.8,149.2z"/>
		<path class="st69" d="M218.6,94.9c-4.1,4.6-9.7,7.3-14.4,11.2c-0.1-7.8,6.5-10.2,11.4-14c0.4-0.3,1.7,0.6,2.6,1
			C218.3,93.7,218.4,94.3,218.6,94.9z"/>
		<path class="st70" d="M233.2,133.1c0.4-0.4,0.9-0.8,1.3-1.1c1.2,0.7,2.2,1.5,2.9,2.7c0.8,1.8-1.4,3.3-0.3,5.3
			c0.7,1.2-0.7,1.6-1.7,1.8c-1.4,0.3-3,0.1-4.2,1.2c-2.7-0.7-5.3-1.3-8-2c-0.6-1.3-0.9-2.5,0.5-3.5c2.2-0.5,4.1-1.6,6-2.7
			C230.9,134.3,232.3,134.1,233.2,133.1z"/>
		<path class="st71" d="M180.2,127.1c0.3-0.1,0.6-0.4,0.9-0.4c4.5-0.3,5.5-2.7,4.1-6.6c0.8-0.4,1.8,0.5,2.5-0.4
			c1.1,0.1,1.9,0.8,2.9,1.2c3.2,0.1,6.4,0.2,9.6,0.3c-7,0.6-12.3,3.6-15.8,9.9c-1,1.7-3.4,0.8-5.2,1c0-0.3,0-0.7,0-1
			C179.6,129.7,179,128.2,180.2,127.1z"/>
		<path class="st72" d="M182.2,119.1c-1.2-0.5-3.3-1.4-3.3,0.1c0,3.6-1.8,5.2-4.8,6.1c-1.1-1.1-1.3-2.5-1-3.9
			c-0.4-1.3-0.9-2.9,0.3-3.7c2.6-1.7,3.3-4.8,5.4-6.8c2-0.7,2.1,2,3.6,2c1.1,0.9,2.4,1.5,2.8,3.1
			C184.3,117.1,183.2,118.1,182.2,119.1z"/>
		<path class="st37" d="M221.8,82.2c2.5-2.5,6.4-3.6,7.3-8c0.4-1.7,3.8,0.6,5.4-1.3c0.9,0.8,2.3,0.8,2.7,2.1
			c-3.1,4.8-6.5,9.3-13,9.2C223,84,222.4,83.1,221.8,82.2z"/>
		<path class="st24" d="M222.2,110.1c0.2-0.7,0-1.9,1.1-0.4c0.8,1.2-0.5,4.2,2.7,3.4c1.1,3,2.1,6,3.2,9c-1.7-0.3-3.4-0.7-5-1
			c-2.2,1.7-4.5,3.2-7.5,2.5c-2.1-1.8-0.6-3.1,0.7-4.3c1.3-1.3,3.2-1.4,4.7-2.2C222.3,114.7,223.4,112.4,222.2,110.1z"/>
		<path class="st73" d="M231.2,142.9c0.7-3.2,3.2-2.3,5.9-2.2c-4.2-2.7-0.1-4.1,0.3-6c2.7,1.4,5.5,2.8,8.2,4.2
			c-3.6,1.6-6.5,4.1-9.5,6.5C234.4,144.6,232.8,143.7,231.2,142.9z"/>
		<path class="st0" d="M223.4,66.9c-4.2,1.7-9,2.5-11.3,7.3c-1.6-0.5-2.4-1.9-3.3-3c0.2-0.6,0.4-1.1,0.8-1.6c0.4-0.5,0.7-1,1-1.6
			c1.1-1.9,0-5.4,3.9-5.2C217.8,63.6,220.6,65.3,223.4,66.9z"/>
		<path class="st74" d="M224.1,84.2c5.3-1.6,8.9-5.7,13-9.2c0.8,1,2.6,0.5,3.1,2c-0.3,0.2-0.7,0.3-0.8,0.5c-2,5.5-7,6.6-11.8,8.2
			c-0.3,0.1-0.4,0.5-0.6,0.7C225.7,86.1,224.7,85.5,224.1,84.2z"/>
		<path class="st75" d="M182,81.4c3.3-3,5.3-7.3,9.4-9.4c1.8,0.4,3.6,0.8,5,2c-2.8-0.7-3.3,2.2-4.8,3.4c-2.3,2-4.3,4.4-6.5,6.6
			C183.6,83.8,182.8,82.5,182,81.4z"/>
		<path class="st76" d="M182.4,113c-1.7,0.3-2.2-1.2-3.2-1.9c-1.9-0.5-3.5-0.7-4.7,1.4c-0.5,0.9-0.8,2.4-2.5,1.7
			c-1.1-5.1,0.2-10.1,1.2-15c1.1-0.7,1.4,0.4,1.9,1C176.4,105,179.8,108.8,182.4,113z"/>
		<path class="st77" d="M252.3,88.1c0.3,0,0.6,0,0.9,0c-4.2,4.5-8.2,9.3-15.3,8.1c-0.4-0.3-0.7-0.6-1.1-1c1-0.4,2-0.9,3.1-1.3
			c3.6-1.3,4.8-6.6,9.6-6C250.4,88,251.3,88,252.3,88.1z"/>
		<path class="st78" d="M182.3,68.7c-0.4,1-0.5,2.9-1.1,3c-3.2,0.7-6,1.6-7,5.2c-2.1-0.6-4.1-1.5-5.1-3.7c-0.2-0.3-0.3-0.5-0.3-0.8
			c0-0.3,0.1-0.4,0.2-0.4c2-1.4,4.7-1.8,6.1-4.2C177.8,65.7,180,67.9,182.3,68.7z"/>
		<path class="st79" d="M252.2,58.1c0.1,3-3.4,2.8-4.5,4.8c-0.6,1.2-2.6,1.5-2.6,3.3c-1.4-1.6-2.7-3.2-4.1-4.8
			c-0.5-1.8-0.5-3.5,0.7-5c1.4,1.2,2.4-1,3.8-0.5c0.7,0.8,1.4,1.3,2.5,1.1C249.7,56.6,251.2,56.3,252.2,58.1z"/>
		<path class="st80" d="M203.2,56.2c1.9,1,4,1.8,5.3,3.7c-0.3,0.8-1,1.3-1.4,1.9c-0.8,1.2,0,2.5-0.3,3.7c-0.3,0.9-0.8,1.7-1.8,1.9
			c-3-2.6-5.2-5.8-7.2-9.2C198.6,54.9,201.7,57.7,203.2,56.2z"/>
		<path class="st81" d="M172,114.1c1.4-0.6,1.1-2.2,1.9-3.3c1.9-2.4,3.6-3.3,5.3,0.2c-1.2,3-1.3,6.6-5.4,7.6
			c-0.5,0.1-0.5,1.8-0.7,2.7C171.5,119.2,172.1,116.6,172,114.1z"/>
		<path class="st82" d="M256.2,66.1c1.6,5.3-2.6,8.2-4.8,12c-0.5-1.6-1-3.3-1.4-4.9c1.3-4.5,7.1-6.9,5.1-13.3c2,1.4,0.8,2.4,1.1,3.2
			C257,64.1,257,65.1,256.2,66.1z"/>
		<path class="st83" d="M321.2,88.1c2.4-1.5,1.7,1.7,3,2c1.2,0.7,2.8,0.2,4,1l0,0c0.7,0.5,1.5,1,1.5,2c-1.9,1.3,1,1.8,0.5,2.9
			c-3.3-0.3-6.7-0.5-10-0.8c-0.6-0.9-0.3-2-0.4-3c0.1-0.6,0.2-1.2,0.3-1.9C320.2,89.4,320.4,88.6,321.2,88.1z"/>
		<path class="st84" d="M245.6,55.9c-1.8,0.7-0.9,2.1-0.5,3.4c-2,0.1-1.6-1.4-2-2.3c-0.1-0.1-0.3-0.2-0.4-0.1
			c-0.1,0-0.3,0.2-0.4,0.3c-1.2,0.6-1.8,2-3.2,2.4c-2-1.3-3-3.3-4-5.4c1.6-1.2,2.9-3.1,5.3-2.1C242.4,52.9,244.5,53.7,245.6,55.9z"
			/>
		<path class="st85" d="M203.2,56.2c-0.5,2-0.5,2-1.8,1.2c-1.4-0.8-2.4,0.5-3.6,0.8c-1.5-2.6-3.2-5.1-3.8-8.1c0.4-1,1.1-1.6,2.2-1.1
			C198,51.9,200.8,53.9,203.2,56.2z"/>
		<path class="st86" d="M205,67.4c0.4-0.8,0.8-1.6,1.2-2.4c0.8-1.1,2.2-1.2,3.2-2c0.9-0.7,1.8-1.1,2.9-1.3c0.7,0.4,1.5,0.8,2.2,1.2
			c-3.1,1-1.5,4.5-3.3,6.2c-0.1,0.1-0.3,0.2-0.4,0.2c-0.8,0.1-1.3-0.6-1.9-1c0.5,0.6,1.1,1.1,1.3,1.8c-0.5,0.4-0.9,0.8-1.4,1.2
			C207.5,69.9,206.2,68.7,205,67.4z"/>
		<path class="st87" d="M213.2,160c-0.3-1-0.7-2-1-2.9c2.5-1.5,3.9-7.1,8-2c-0.4,2.9-4.7,3.5-4,7C214.8,162,214.2,160.7,213.2,160z"
			/>
		<path class="st88" d="M327.2,53.1c0.8,0.3,1.5,0.6,2.3,0.9c1.3,1.8,1.9,4,2.5,6.1c-1.1,0.9-4-1.6-3.8,2c-0.7-1-1.3-2-2-3
			C324.9,56.8,326.5,55,327.2,53.1z"/>
		<path class="st89" d="M295.2,15.9c-0.4,0.4-0.7,0.8-1.1,1.2c-2.2,2.4-3.5,0-5-1c-0.3-0.3-0.7-0.7-1-1c-0.9-0.9-1.8-1.8-1.5-3.3
			c0.4-0.7,0.8-1.3,1.7-0.8C290.3,13.1,293.8,13.1,295.2,15.9z"/>
		<path class="st90" d="M175.1,67.7c0.4,4.6-3,4.2-5.9,4.4c-0.9-0.5-1.3-1.4-1.4-2.4c0.1-0.5,0.3-0.9,0.6-1.3
			c1.8-1.2,3.4-3.1,5.8-1.3C174.5,67.3,174.8,67.5,175.1,67.7z"/>
		<path class="st91" d="M240.4,52c-2,0.1-3,2.7-5.3,2.1c-1-1.7-2-3.3-3-5c-0.5-1.1-0.7-2.1,1.1-2.1C234.7,50,238.1,50.2,240.4,52z"
			/>
		<path class="st92" d="M174.2,67c-2.4-0.6-3.8,2-6,2c-1.6-0.8,0.1-3.4-2-4c0-1.2,0.6-1.9,1.8-2C169.7,65.1,173.9,62.9,174.2,67z"/>
		<path class="st93" d="M290.3,88.1c-1,0-2,0-3.1,0c-1.3-2.3,2.2-3.7,1-6c0-0.7,0-1.3,0-2c-0.3-0.2-0.5-0.6-0.4-1
			c0.3-0.6,0.7-0.9,1.4-1c0.4,0,0.9,0.1,1.3,0.1C290.4,81.5,290.3,84.8,290.3,88.1z"/>
		<path class="st94" d="M252.2,58.1c-1.1-1.2-3.1,0.7-4.1-1.1c0-2,0-3.9,0-5.9c0.3-0.4,0.8-0.5,1.3-0.6c0.5,0.1,0.9,0.3,1.3,0.6
			c1,1.5,2.9,2.8,1.5,5C252.2,56.7,252.2,57.4,252.2,58.1z"/>
		<path class="st95" d="M305.2,13.1c-2.2,0.1-2.6,6.4-6.1,1.7c1.5-2.2,3.6-3.8,6.1-4.6C306,11.1,306,12.1,305.2,13.1z"/>
		<path class="st96" d="M298.1,68.3c0-0.7,0-1.5,0.1-2.2c3-0.2,5.9-0.9,8.8,0.6c1,1.2,0.2,2-0.6,2.8c-2,1.1-4.2,0.9-6.3,0.7
			C299.1,69.8,298.4,69.2,298.1,68.3z"/>
		<path class="st30" d="M285,154.1c-1.9-0.3-3.9-0.7-5.8-1c1.8-1.3,2.3-3.5,3.2-5.4C285.5,148.8,284,152,285,154.1z"/>
		<path class="st97" d="M259.2,135.1c-2.3-1.4-1.3-5-4.1-6c0-0.6-0.1-1.1-0.1-1.7c0.7-1.3,2-1.3,3.2-1.3c1.2,0.9,1.1,2.4,1.6,3.6
			c0.2,0.4,0.2,0.9,0.3,1.4C260.1,132.5,260.5,134,259.2,135.1z"/>
		<path class="st98" d="M245.3,186c1.6-2,0.9-5.1,2.9-7c1.6,1.3,1.1,3.2,1.2,4.9c-0.2,1.5-0.2,3-1.6,4c-0.2,0.1-0.4,0.1-0.6,0.2
			C246.6,187.4,245.2,187.3,245.3,186z"/>
		<path class="st99" d="M288.4,10.9c-0.4,0.4-0.8,0.7-1.3,1.1c-0.4,1.1-1,2.1-1.9,2.9c0,0-0.3,0.2-0.3,0.2c-1.5-2.8-1.2-5.6-0.5-9.3
			C286.1,7.9,287.3,9.4,288.4,10.9z"/>
		<path class="st100" d="M212.3,61.7c-0.7,0.8-1.4,1.6-2.1,2.3c-3,1.2-4.1-0.1-4-3c0.5-0.9,1.4-1,2.3-1.2
			C210.2,59.7,211.4,60.4,212.3,61.7z"/>
		<path class="st101" d="M249.2,51c-0.3,0-0.7,0-1,0c-0.6-1.7-1.2-3.3-1.9-5c0.6-0.7,1.3-1.3,1.9-2c1.5,0.3,2.2-2.3,4-1
			c0.5,1,0,1.8-0.5,2.6C250.3,47.2,250.7,49.6,249.2,51z"/>
		<path class="st102" d="M166.2,65.1c4.5-0.6,1.6,2.6,2,4c0,0,0,0,0,0c-1.2,1.2-2.5,1.7-4.2,1.1c-0.7-0.6-1.3-1.2-2-1.8
			c0.4-1,1.2-1.3,2.2-1.3C165.4,66.9,165.5,65.8,166.2,65.1L166.2,65.1z"/>
		<path class="st103" d="M330.2,95.9c-0.7-0.8-2.1-1.4-1-2.9c1.2-1.3,2.4-0.6,3.7-0.1c5.4-1.2,3.2,2,2.5,4.3l0,0
			c-1.8,0.5-3.2-0.3-4.6-1.1C330.5,96.3,330.3,96.2,330.2,95.9z"/>
		<path class="st104" d="M255.2,14.1c-0.7,1.1-1.4,2.1-2.1,3.2c-0.4-0.3-0.8-0.6-1.1-1c-1-1.6-2.1-3.8-0.8-5.1
			c1.5-1.4,2.5,1.3,4,1.9c0.3,0.2,0.4,0.4,0.3,0.6C255.4,13.9,255.3,14.1,255.2,14.1z"/>
		<path class="st105" d="M300,70.1c1.9-1.2,4.1-1.2,6.2-1.1c0.5-0.2,1-0.1,1.1,0.5c0.1,0.8-0.6,1.1-1.1,1.5c-0.5,0.9-1.3,1-2.2,1.1
			C302.3,72.2,301,71.4,300,70.1z"/>
		<path class="st106" d="M291.2,133.1c0.3,1,0.7,2,1,3c0,1.1,0.2,2.3-1,3c-1.3-1.8-3-3.5-3.1-5.9
			C289.1,131.9,290.2,133.4,291.2,133.1z"/>
		<path class="st51" d="M321.2,91.1c-0.3,0.3-0.7,0.7-1,1c-0.4,0.7-0.9,1.5-1.9,1c-0.1-2.6-0.2-5.3-0.3-7.9c0.8,0,1.5-0.1,2.3-0.1
			c0,0,0,0,0,0C321.5,86.9,319.7,89.2,321.2,91.1z"/>
		<path class="st107" d="M335.4,97.3c-0.7-1.1,1.7-4.3-2.2-3.2c-0.6-0.7-0.6-1.3,0-2c1.5-2.9,2.9,1,4.4,0.1
			C337.4,94.1,336.9,95.9,335.4,97.3z"/>
		<path class="st108" d="M238.3,30.1c-0.1,0.7-0.1,1.5-0.2,2.3c-1.5-5.7-0.7-7.4,3.2-6.5C242.1,28.5,240.1,29.2,238.3,30.1z"/>
		<path class="st92" d="M164,70.2c1.3-0.7,2.6-1.3,4.2-1.1c0.3,1,0.7,2,1,3c0,0.4,0,0.8-0.1,1.1C167,72.8,165.4,71.7,164,70.2z"/>
		<path class="st98" d="M249.2,193c-1.3-1.4-1.6-3.2-2.1-4.9l0.4-0.3c1.3-0.1,1-2.5,2.8-1.8l0-0.1C250.5,188.4,251.9,191,249.2,193z
			"/>
		<path class="st109" d="M249.2,193c1.9-2.1,0.4-4.8,1-7.1c1.3,3.1,0.7,6.3,0.9,9.5C249,195.7,249.3,194.3,249.2,193z"/>
		<path class="st110" d="M291.3,90.8c-0.2,1.2,0.1,2.5-1.1,3.3c-2.1-0.5-2.8-2-3-4c1.1,0,2.1-0.1,3.2-0.1
			C290.7,90.2,291,90.5,291.3,90.8z"/>
		<path class="st111" d="M196.2,49.1c-0.7,0.4-1.5,0.7-2.2,1.1c-1.2-1.1-1-2.4-0.9-3.8c-0.5-1.2,0.2-1.4,1.1-1.3
			C194.8,46.4,196.4,47.3,196.2,49.1z"/>
		<path class="st112" d="M193.2,142.1c-0.7,1.1-1.4,2.2-2.1,3.2c-0.7-0.6-1.4-1.2-2-1.8c0.1-0.5,0.1-0.9,0.2-1.4
			c0.9-1.2,1.5-2.6,3.4-2.4C193.6,140.2,193.9,141,193.2,142.1z"/>
		<path class="st113" d="M247.2,155c1.3-0.5,2.8-1.6,3,1c-0.4,0.8-0.8,1.6-1.2,2.4c-1.4-0.8-2.4-1.9-3.1-3.3
			C246.4,155.1,246.8,155.1,247.2,155z"/>
		<path class="st114" d="M238.3,30.1c1.2-1.3,2.5-2.5,3-4.3c0.3,0.3,0.6,0.6,1,0.9c0.3,1.1,0.7,2.3-0.1,3.4c-0.7,0.6-1.3,0.6-2,0
			C239.5,30.1,238.9,30.1,238.3,30.1z"/>
		<path class="st115" d="M187.2,120.1c-0.7,1.1-1.3,0.1-2,0c-0.3-0.3-0.7-0.7-1-1c-0.6-1.4-0.6-2.4,1.4-2.2c0.7,0,1.3,0.1,1.7,0.8
			C187.7,118.5,187.9,119.3,187.2,120.1z"/>
		<path class="st116" d="M279.2,137.1c0.4-1.1,0.7-2.1,1.1-3.2c1,1.6,1.5,3.4,1.7,5.2c-1.5,1.2-1.9-0.6-2.8-1
			c-0.2-0.2-0.3-0.4-0.2-0.7C279,137.2,279.1,137.1,279.2,137.1z"/>
		<path class="st107" d="M330.8,96.2c1.7-0.3,3.2,0.1,4.6,1.1C332.9,100.9,331.7,98.9,330.8,96.2z"/>
		<path class="st117" d="M191.9,43.2c-1.3-1.9-0.4-4.1-1-7c1.7,2,2.1,3.5,2.1,5C192.4,41.7,193,42.9,191.9,43.2z"/>
		<path class="st40" d="M223.2,138.1c0.5,0.9,0.7,1.9,0,2.8c-0.7,0.1-1.4,0.1-2,0.2c-0.9-0.6-1.7-1.3-1.3-2.5
			C220.8,137.2,221.9,137,223.2,138.1z"/>
		<path class="st118" d="M270.2,179c3-0.8,4.6,0.3,4.9,3.4C273.5,181.3,271.8,180.2,270.2,179z"/>
		<path class="st119" d="M262,111.1c-0.3,0-0.6,0-0.8,0c-0.7-0.5-2.2-0.4-1.9-1.7c0.2-1,1.1-0.8,1.9-0.4c2,0,4,0.1,6,0.1
			c0.2,0.2,0.3,0.4,0.2,0.6c-0.1,0.2-0.2,0.3-0.2,0.3C265.5,110.5,263.3,108.8,262,111.1z"/>
		<path class="st120" d="M239,59.4c0.6-1.5,1.5-2.3,3.2-2.4c-0.4,1.4-0.8,2.9-1.1,4.3C240.4,60.7,239.7,60.1,239,59.4z"/>
		<path class="st121" d="M293.1,55.1c0,1.3,0,2.6,0,4c-0.6,0.1-1.2,0.1-1.8,0.2c-0.1-1.1-0.2-2.2-0.3-3.2
			C291.2,54.4,292,54.4,293.1,55.1z"/>
		<path class="st122" d="M331.3,33c-1.4,1-2.8,0.2-4.2,0.1c-0.5-1.3,0.4-2.1,1-3C329.9,30.3,330.7,31.6,331.3,33z"/>
		<path class="st10" d="M220.2,139.1c0.3,0.7,0.7,1.3,1,2c0,0-0.3,0.2-0.3,0.2s-0.4,0-0.4,0c-0.9-0.1-1.8,0-2.3,0.9
			c-1.5,0.1-1.7-0.9-1.2-1.9C217.7,138.9,218.6,138,220.2,139.1z"/>
		<path class="st17" d="M293.1,173.2c-1.9-0.2-3.4-0.8-2-3.2C291.8,171.1,292.5,172.2,293.1,173.2z"/>
		<path class="st123" d="M305.2,13.1c0-1,0-2,0-2.9c0.2-0.2,0.4-0.3,0.7-0.2c0.8,0.4,1.9,0.7,1.6,1.9
			C307.2,12.9,306.1,13,305.2,13.1z"/>
		<path class="st124" d="M267.2,110c0-0.3,0-0.6,0-1c1-1.3,2.4-1.8,4-2c-0.3,0.7-0.7,1.3-1,2c-0.5,0.9-1.1,1.6-2.3,1.2l-0.4,0
			L267.2,110z"/>
		<path class="st125" d="M250.3,186c-1.1,0.4-1.2,2.2-2.8,1.8c0.7-1.3,0.4-3,1.8-3.9C250.3,184.3,250.3,185.2,250.3,186z"/>
		<path class="st126" d="M255.2,14.1c0-0.3,0-0.6,0-1c1.5-0.5,2.6,0.8,4,1C257.8,17.5,256.5,14.8,255.2,14.1z"/>
		<path class="st127" d="M185.6,116.9c-1,0.3-1.4,1.2-1.4,2.2c-0.7,0-1.3,0-2,0c0.1-1.9,1.1-2.9,3-3
			C185.4,116.3,185.6,116.6,185.6,116.9z"/>
		<path class="st128" d="M318.2,93c0.6-0.3,1.3-0.7,1.9-1c0.7,1,0.6,2.1,0,3.1C318.4,95.5,317.6,94.9,318.2,93z"/>
		<path class="st129" d="M191.9,43.2c0.4-0.6,0.7-1.3,1.1-1.9c0.4,1.3,0.7,2.5,1.1,3.8c-0.4,0.4-0.8,0.8-1.1,1.3
			C192,45.5,192.2,44.3,191.9,43.2z"/>
		<path class="st130" d="M187.2,120.1c0-0.8,0.1-1.6,0.1-2.3c0.9,1.2,3.5,0.8,3.3,3.2C189.3,121.2,188.3,120.5,187.2,120.1z"/>
		<path class="st131" d="M233.2,47c-1.2,0.3-1,1.2-1.1,2.1c-1.3-1.2-1-2.7-0.7-4.2C232.6,45.1,232.7,46.2,233.2,47z"/>
		<path class="st132" d="M175.1,100.1c-0.6-0.3-1.3-0.7-1.9-1c0-0.8,0-2,1.2-1.6C175.5,97.8,175.2,99.1,175.1,100.1z"/>
		<path class="st133" d="M188.8,87.2c2.2-0.1,3.4,0.8,3.2,3.1C190.9,89.2,189.9,88.2,188.8,87.2z"/>
		<path class="st134" d="M267.9,110.2c0.8-0.4,1.5-0.8,2.3-1.2c3.2,1-1,1.5-0.2,2.4C269.3,111,268.6,110.6,267.9,110.2z"/>
		<path class="st135" d="M328.2,30c-0.3,1-0.7,2-1,3c-0.7-0.3-1.3-0.7-2-1c0.7-0.8,1.4-1.5,2.2-2.3C327.6,29.7,327.9,29.8,328.2,30z
			"/>
		<path class="st136" d="M312.2,9c-0.5-0.9-1.4-0.9-2.3-1c0.9-0.7,1.9-2.1,3.1-1.1C313.8,7.6,313.3,8.6,312.2,9z"/>
		<path class="st137" d="M259.1,80.1c0-1-0.1-2-0.1-3.1c-0.4-2-0.4-3.9,0-5.9c-1.4-2.1,0-4,0.3-6.1c-1.4-2.5,0.6-5,0.1-7.4
			c0.6-2.3,1.1-4.7,2-7c0.7-1.5,1.3-3,2.5-4.1c0.2-0.1,0.4-0.2,0.6-0.3c3.6-5.9,7.6-11.4,12.9-15.9c2.6-2.2,5.2-4.3,8.8-4.2
			c0.2,0.9,0.1,1.6-0.7,2.2c-5.5,4.9-10.2,10.5-14.1,16.7c-0.4,4.5-1.7,8.7-5,12c-0.1,0.3-0.1,0.7-0.2,1c0.7,1.3,0.1,2.6-0.1,3.8
			c-1,2.2-1.3,4.6-1.5,7c-0.1,1.6-0.5,3.2-0.8,4.8c-0.1,1.2-0.1,2.4-0.1,3.6c0,1.5,0,3-0.1,4.5c-0.1,0.8-0.3,1.5-0.6,2.2
			c-0.6,0.9-1.4,1.6-2.6,1.1C259.8,83.4,259.5,81.7,259.1,80.1z"/>
		<path class="st138" d="M251.2,45.1c0.3-0.7,0.7-1.3,1-2c4.3-1,7-5.7,12-5c0.3,0.2,0.4,0.4,0.3,0.7c-0.1,0.2-0.2,0.3-0.3,0.3
			c-0.3,1-0.7,2-1,3c-0.3,0.3-0.7,0.6-1.1,0.9c-3.3,1.7-5.6,4.4-7.8,7.4c-0.6,0.9-0.8,2.3-2.5,1.8c-0.5-0.6-0.7-1.3-0.9-2
			C250.8,48.4,250,46.7,251.2,45.1z"/>
		<path class="st139" d="M289.2,16.1c1.8-0.1,3.1,2,5,1c-0.5,1.3,1.7,1.7,1,3c-0.7,0.6-1.3,0.6-2,0
			C292.2,18.3,289.2,18.7,289.2,16.1z"/>
		<path class="st140" d="M291.2,23.1c-1,1.3-2.4,1.8-4,2.1c-1.8-1.5,0.2-2.1,0.8-2.8C289.5,20.7,290.1,23,291.2,23.1z"/>
		<path class="st141" d="M293.2,20.1c0.7,0,1.3,0,2,0c0.4,0.6,1.4,1.5,1.2,1.8c-0.9,1.7-2.7,1-4.2,1.2
			C292.5,22,292.8,21.1,293.2,20.1z"/>
		<path class="st142" d="M285.3,15c-0.2-1.5,0.6-2.4,1.9-2.9c0.3,1,0.7,2,1,3C287.2,15,286.3,15,285.3,15z"/>
		<path class="st143" d="M264.2,39.1c0-0.3,0-0.7,0-1c0.2-1.1-0.4-2.3,0.9-3.7C265.3,36.3,266.8,37.9,264.2,39.1z"/>
		<path class="st144" d="M262.2,42.1c0.3,0,0.7,0,1,0c0.4,1.4,0.8,2.8,1.2,4.2c0,0,0,0,0,0C261.3,46,261,44.4,262.2,42.1z"/>
		<path class="st145" d="M270.3,34.2c-0.2,0.4-0.5,0.8-0.7,1.1c-0.3-0.3-0.9-0.7-0.8-0.9c0.2-0.6,0.6-1,1-1.5
			C269.9,33.3,270.1,33.7,270.3,34.2z"/>
		<path class="st146" d="M266.3,57.1c1.1-4.2,2.7-8.2,5-12c1.5,0.4,0.1,3.7,2.9,3c0.5-0.7,1-1.4,2-1.6c3.1-0.8,4.7-3.6,7-5.4
			c0-0.3,0-0.7,0-1c4.5,3.9,5.4-1.7,8-3c2.2,1.5,2.2,1.5,0,5c-4.9,4-8.9,9.3-15.4,11c-1.7,0.5-2.2,2-3.1,3
			C270.7,58.3,268.8,58.9,266.3,57.1z"/>
		<path class="st147" d="M283.2,41c-1.3,3.2-2.9,6.1-7,6c-1.3-1.7-0.7-3.3,0-5C278.2,39.6,280.8,40.9,283.2,41z"/>
		<path class="st148" d="M276.2,42.1c0,1.7,0,3.3,0,5c-0.7,0.3-1.3,0.7-2,1C274.2,45.8,274,43.5,276.2,42.1z"/>
		<path class="st6" d="M222.2,117.1c-1.1,2.9-5.9,2.1-6,6c-0.1,0.2-0.2,0.4-0.3,0.6c-0.9,1-1.6,2.1-2.2,3.2
			c-2.8,2.9-5.6,5.6-9.4,7.2c-2.4,1-4.7,2.7-6.1,5c-1.8,2.9-3.6,2.3-5.6,0.5c-0.7-0.3-1.1-0.9-1.4-1.5c-0.8-2.4,1.4-2.5,2.6-3.3
			c7.7-5.6,16.8-9.2,23.1-16.8C218.1,116.5,220.1,115.6,222.2,117.1z"/>
		<path class="st149" d="M191.2,138.1c0.3,0.3,0.7,0.7,1,1c0.3,0.2,0.5,0.4,0.3,0.7c-0.1,0.2-0.2,0.3-0.3,0.3c-1,0.6-1.4,2.2-3,2
			C187.6,139.6,190.5,139.4,191.2,138.1z"/>
		<path class="st63" d="M285.2,54.1c0.6,3.4-0.9,6.2-3.6,7.6c-4.4,2.2-6.7,7-11.4,8.7c-1.5,0.5-1.9,2.2-2,3.8c0,0-0.5,0-0.5,0h-0.5
			c-0.8-0.6-1-1.5-1.1-2.5c-0.3-2.2,0.7-4.4,0.6-6.6c-0.1-0.4-0.1-0.9-0.1-1.3c0.1-1.2,0.4-2.2,1.7-2.6c3.7,2.3,5.8-0.8,8-2.6
			C278.9,56.2,281.5,54.2,285.2,54.1z"/>
		<path class="st146" d="M291.2,42.1c-0.2-1.7,2.2-3.3,0-5c4.8-1.5,8.4-4.9,11.9-8.2c1.9-1.7,3.8-2.9,6.1-3.8c1-0.7,2-0.7,3,0
			c-0.2,2.1-1.4,3.4-3.1,4.6C303.1,33.8,297.5,38.5,291.2,42.1z"/>
		<path class="st150" d="M289.2,50.1c2.7-6.5,8.8-8.9,14.4-11.9c1.9-1,3.8-2,5.6-3.1c0.6,0.6,0.8,1.3,0.7,2.1
			c-0.6,2.2-2.3,3.8-4,4.9c-5.4,3.3-10.8,6.4-15.3,11c-0.5,0.5-1.2,0.4-1.8-0.1C288.3,51.8,288.4,50.9,289.2,50.1z"/>
		<path class="st151" d="M309.2,37.1c0-0.7,0-1.3,0-2c0.2-5.5,4.6-4.5,8-5c-2.2,1.6-4.5,3-5,6C311.5,37.3,310.7,38.1,309.2,37.1z"/>
		<path class="st151" d="M321.1,25.1c-0.2,2.4-1.6,3.6-4,3.9c0.2-1.7-0.3-2.9-2.3-3.3C316.9,23.6,319.2,26,321.1,25.1z"/>
		<path class="st146" d="M268.2,61.1c-0.3,1-0.7,2-1,3c-1.8,0.4-1.9-1.1-2.3-2.1c0.4-1.3,0.8-2.6,1.3-3.9
			C266.8,59,267.5,60,268.2,61.1z"/>
		<path class="st152" d="M289.2,50.1c0,1,0,2,0,3c0.5,1.1-0.2,1.6-1,2c-0.3,0-0.7,0-1,0c-0.8-1.7-0.7-3.3,0-5
			C287.8,50.1,288.5,50.1,289.2,50.1z"/>
		<path class="st153" d="M287.2,50.1c0,1.7,0,3.3,0,5c-0.1,0.7,0.3,1.6-0.8,2.2c-0.1-1.2-0.1-2.2-0.2-3.2
			C286.3,52.7,285.7,51.1,287.2,50.1z"/>
		<path class="st154" d="M312.2,25.1c-1,0-2,0-3,0c0.2-2.7,2-0.6,3-1C312.9,24.4,312.9,24.7,312.2,25.1z"/>
		<path class="st155" d="M288.2,79.1c0,0.3,0,0.7,0,1c-3.5-1.6-6.1-0.8-8.8,2.1c-2,2.1-4.8,3.8-7.5,4.6c-2.2,0.6-3.3,1.9-4.7,3.3
			c-1-1.3-1.2-2.7,0-4c5.4-3.9,10.5-8.4,16.7-11.2c0.9-0.4,1.6-0.1,2.3,0.2C289.7,75,287.9,77.5,288.2,79.1z"/>
		<path class="st156" d="M267.2,86.1c0,1.3,0,2.7,0,4c-0.3,0-0.7,0-1,0c0,0,0,0,0,0c-2.1-3.1-1.8-6.3-0.6-9.6
			c0.4-0.6,0.9-0.7,1.6-0.4C267.2,82.1,267.2,84.1,267.2,86.1z"/>
		<path class="st157" d="M252.2,109.1c0,0.8-0.2,1.6-1,2c-0.1-0.5-0.2-0.9-0.3-1.4c-0.2-1-2.2-1.9-0.7-2.7
			C251.5,106.2,251.5,108.3,252.2,109.1z"/>
		<path class="st158" d="M261.2,109c-3.1,0.7,0.4,1.4,0,2.1c-2.8,1.4-4.2,5.2-8,5c0.3-2.4-2-6.2,3.5-5.8c1.1,0.1,2.3-2.1,3.5-3.2
			C260.5,107.7,260.8,108.3,261.2,109z"/>
		<path class="st159" d="M288.2,79.1c-1.7-0.8,0.6-3.6-2-4c1.4-0.5,2.7-1.1,4.4-1.7c-0.5,1.7-1,3.2-1.4,4.7
			C288.8,78.4,288.5,78.7,288.2,79.1z"/>
		<path class="st160" d="M267.2,80.1c-0.3,0-0.7,0-1,0c-0.4-0.4-0.8-0.8-0.9-1.4c-0.5-2.5-0.7-5,0.5-7.4c0.4-0.5,0.9-0.6,1.5-0.3
			c0,1,0,2,0,3C267.2,76.1,267.2,78.1,267.2,80.1z"/>
		<path class="st118" d="M277.2,181.1c-0.4-0.7-0.8-1.4-1.6-2.6c2.3,0.5,4.2,0.9,4.3-2.4c0-1.8,2.1-3.3,4-2.8
			c2.4,0.6,2.5,2.7,1.3,4.7C282.5,179.1,280.8,182.5,277.2,181.1z"/>
		<path class="st161" d="M299.2,184.1c-0.1,1-0.5,2.3-1.7,1.8c-1.4-0.6-1-2.5-1.3-3.8C298.4,180.9,297.8,183.9,299.2,184.1z"/>
		<path class="st162" d="M220.2,139.1c-1.5,0.5-3.8,0.4-2,3c-3.2,2-5.9,4.4-8.1,7.5c-1.2,1.6-2.7,2.8-4.9,2.5c-0.9-1-0.8-2,0-3
			c-0.2-4.4,3.4-6.5,6.3-7.3c5.7-1.6,8-6.9,12.5-9.7c1.4-0.9,2.4-2.1,4.2-2c0.7,0.6,0.5,2.2,2,2l0,0c0.8,1,0.9,2,0,3
			c-1.7,2.4-4,3.5-7,3C222.1,138.1,220.9,137.9,220.2,139.1z"/>
		<path class="st163" d="M205.2,149.1c0,1,0,2,0,3c-0.4,0.8-1.1,1-1.9,0.9c0.6-2.9-3.4-3.2-3.1-5.9
			C201.9,147.7,203.5,148.4,205.2,149.1z"/>
		<path class="st40" d="M230.2,135.1c0-1,0-2,0-3c1,0.3,2,0.7,3,1C232.9,134.8,232.2,135.9,230.2,135.1z"/>
		<path class="st40" d="M230.2,132.1c-0.9,0.1-1,2-2.1,1.1c-1.1-0.9,0.4-2,0.1-3.1C230.6,128.9,230.1,130.8,230.2,132.1z"/>
		<path class="st113" d="M279.2,137.1c0,0.3,0,0.7,0,1c0,0.3,0,0.7,0,1c-0.8,0.6-1,1.7-2,2c-7.5,3.5-14.1,8.3-20,14.1
			c-1.7,1.7-3.5,3.9-6,0.9c4.6-5.5,10.1-10,16-13.8c2.5-1.7,4.3-4.2,7.4-5.3C276.4,136.3,277.7,136.2,279.2,137.1z"/>
		<path class="st164" d="M277.2,141.1c0-1.3,0.7-2,2-2c0,1,0,2,0,3c-1.2,1.1,0.2,2.9-1,4c-0.3,0-0.7,0-1,0
			C277.2,144.4,277.2,142.7,277.2,141.1z"/>
		<path class="st165" d="M278.2,146.1c0.1-1.4-0.5-2.9,1-4c0,1,0,2,0,3c0.7,1.3,0.7,2.7,0,4C278,148.3,278.2,147.1,278.2,146.1z"/>
		<path class="st166" d="M279.2,149.1c0-1.3,0-2.7,0-4C280.3,146.4,281.2,147.7,279.2,149.1z"/>
		<path class="st36" d="M288.2,55.1c0.3-0.7,0.7-1.3,1-2c4.8-6.8,13-9.1,18.8-14.5c0.5-0.4,0.8-1,1.2-1.5c1-0.3,2-0.7,3-1
			c1,1.8,0.3,3.2-1.3,4.2c-1.5,0.9-1.7,2.3-1.7,3.9c-2.1-0.1-4.3,0.4-5.3,2c-2.7,4.1-6.9,6.3-10.7,9c-0.9-0.1-1.5,0.1-2,0.9
			C290.1,55.7,289.2,55.4,288.2,55.1z"/>
		<path class="st155" d="M192.2,140.1c0-0.3,0-0.7,0-1c2.4,1.1,3.6,1,5.6-1.6c4-5,11.1-6.4,15.4-11.4c0.7-1.3,2-2,3-3
			c2.9,0.4,5.1-2.4,8-2c-0.1,0.7,0,1.8-0.3,1.9c-5.8,2.2-8.6,8.4-14.4,10.6c-4.6,1.7-7.1,6.7-12,8.2c-1.5,0.5-2.8,1.7-4.4,0.3
			C193.2,141.2,193,140.5,192.2,140.1z"/>
		<path class="st2" d="M322.2,48.1c-0.4,0.3-0.7,0.7-1.1,1c-2.3,0.1-2.3-1.3-2-3c0,0,0.1-0.2,0.1-0.2
			C320.5,46.3,323.7,44,322.2,48.1z"/>
		<path class="st68" d="M261.2,133.1c3.6-1.2,5.6-4.6,8.7-6.9c0.5,1.4,0.9,2.6,1.3,3.9c-3.8,2.7-5.7,8.7-12,7c0-0.3,0-0.7,0-1
			c0.4-0.4,0.6-1,0.9-1.6C260.3,133.9,260.6,133.4,261.2,133.1z"/>
		<path class="st167" d="M220.2,155.1c-3.6-3-5.2,1.7-8,2c-0.3-6.3,5.6-7.4,8.9-10.6c2-1.9,1.1,2.9,3.1,1.6
			C225,151.6,222.6,153.3,220.2,155.1z"/>
		<path class="st168" d="M287.2,90.1c1,1.3,2,2.7,3,4c0.1,1.8-0.9,1.5-2,1c0-1.4-0.7-2.4-2-3C286.2,91.2,286.4,90.5,287.2,90.1z"/>
		<path class="st169" d="M284.2,117.1c0,1,0,2,0,3c-0.9,0-1.9-0.1-2.8-0.1C281.9,118.6,282.9,117.7,284.2,117.1z"/>
		<path class="st170" d="M296.2,110c0-1.3,0-2.7,0-4.2c1.3,0.6,0.8,1.5,1,2.2C297.2,108.9,297,109.6,296.2,110z"/>
		<path class="st171" d="M307.2,67.1c-3.1,0.1-6.1,0-9-1c3.7-4,8.9-6.3,12-11c0.7,0.3,1.5,0.4,2.3,0.5c1.1,0.1,1,2.4,2.7,1.5
			c0.3,0,0.7,0,1,0c2.4,1.7,1.8,3.5-0.3,4.5c-3,1.4-5.7,2.9-7.4,5.8C308.3,67.7,307.6,67.4,307.2,67.1z"/>
		<path class="st172" d="M319.2,46.1c0.4,1.2,0.9,2.3,2,3c-0.3,2.4-3.4,1.1-4,3.1c-3.2,0.4-1.2-4.2-3.9-4.2c0.3-2.1-2.2-2.9-2.2-4.9
			c0.9-3.3,2.7-0.5,4-0.6C316.4,43.7,317.8,44.9,319.2,46.1z"/>
		<path class="st173" d="M315.2,57.1c-1.5,1.1-2.1-0.4-3-1c-0.6-0.7-0.6-1.3,0-2c0.7-1.1,1.3-0.1,2,0
			C314.5,55.1,314.8,56.1,315.2,57.1z"/>
		<path class="st174" d="M312.2,54.1c0,0.7,0,1.3,0,2c-1.1,0.5-2.1,0.8-2-1C310.1,53.3,311.1,53.5,312.2,54.1z"/>
		<path class="st175" d="M260.2,85c0.6-0.4,1.2-0.8,1.9-1.2c1.7,1.7,1.4,3.4,0.2,5.2c-1.4,1.1-1-1.1-1.9-1
			C260.3,87,260.2,86,260.2,85z"/>
		<path class="st176" d="M256.2,85.1c0-2,0-3.9,0-6.1c1.6,0.9,0.7,2.1,1,3.1C256.7,83,258.1,84.6,256.2,85.1z"/>
		<path class="st177" d="M262.2,89.1c-0.1-1.7-0.1-3.4-0.2-5.2c0.1-0.6,0.2-1.2,0.2-1.9c0.7-1.6,0.6-3.3,0.1-4.9c0-1.3,0-2.7,0-4
			c1.7-1,2.3,0.1,2.7,1.5c0.4,1.5,0.3,3.2,1.2,4.5c0,0.3,0,0.7,0,1c0,3.3,0,6.7,0,10C264.9,89.7,263.5,89.4,262.2,89.1z"/>
		<path class="st178" d="M261.2,133.1c0,0.8-0.2,1.6-1,2c-1.2-1.5,0.2-3.5-1-5l0,0c-0.7-2.3-0.8-4.7,0-7c2.1-0.9,3.1-3.3,5.4-4
			c2.5-0.8-1.4-2.3,0.3-3.3c1.2,0.4,1.8,1.3,2.3,2.4c0.6,1.4,4.9,2,0.1,4.6C264.2,124.3,259.7,127.6,261.2,133.1z"/>
		<path class="st179" d="M259.2,123.1c0,2.3,0,4.7,0,7c-1.5-1-0.9-2.6-1-4C259.1,125.2,255.6,123,259.2,123.1z"/>
		<path class="st5" d="M307.2,67.1c1.8-3.2,4-5.6,7.9-6.2c2.3-0.3,2-2.2,1.1-3.8c1.9,0.4,3.8,0.9,5.2-1.3c0.7-1.1,1.3-0.7,1.8,1.3
			c-1.6,5.3-12.2,14-17,14c0.1-0.7,1.1-1.3,0-2C306.5,68.4,306.8,67.7,307.2,67.1z"/>
		<path class="st180" d="M327.2,53.1c-0.3,2-0.7,4-1,6c-0.1,0.7-0.2,1.4-0.2,2.1c-0.3,0-0.5-0.1-0.8-0.1c0-1.3,0-2.7,0-4
			c1-2-0.3-4.1,0.2-6.3C326.1,51.6,326.6,52.3,327.2,53.1z"/>
		<path class="st181" d="M314.2,39.1c0.2-0.9-0.5-2.6,1.2-2.4c1,0.1,0.7,1.5,0.8,2.4C315.5,39,314.8,39.1,314.2,39.1z"/>
		<path class="st182" d="M259.2,130.1c1.7,1.4,0.8,3.3,1,5c-0.3,0.3-0.7,0.7-1,1c0-0.3,0-0.7,0-1
			C259.2,133.4,259.2,131.7,259.2,130.1z"/>
		<path class="st183" d="M321.2,91.1c-2.7-1.6-0.2-4.1-1-6c1.2,0.7,1,1.9,1,3C321.2,89.1,321.2,90.1,321.2,91.1z"/>
		<path class="st184" d="M328.2,91c-1.4-0.1-2.9,0.5-4-1c0.5-0.6-1-2.2,1-2C325,90.2,327.5,89.7,328.2,91z"/>
		<path class="st185" d="M185.5,72.1c-0.4,0.2-0.8,0.6-1.2,0.6c-0.6,0-0.9-0.6-0.5-1c0.2-0.3,0.8-0.4,1.3-0.4
			C185.1,71.2,185.3,71.7,185.5,72.1z"/>
		<path class="st186" d="M235.6,157.1c-0.3,0.3-0.6,0.7-0.6,0.6c-0.5-0.4-1.1-0.7-1.4-1.2c-0.3-0.5,0-1,0.7-0.7
			C234.7,156.1,235.1,156.6,235.6,157.1z"/>
		<path class="st187" d="M300.3,187.1c1.7,0.4,3.3,0.8,5.4,1.4C303.2,190.5,301.7,188.6,300.3,187.1z"/>
		<path class="st79" d="M252.2,50.1c0,0.7,0,1.3,0,2c2.7,0.1,3.3-2.8,5.4-3.7c2.5-1.1,4.2-1.2,4.9,1.8c-0.7,2.4-1.4,4.8-2.1,7.2
			c-1.3-0.2-1.2,1.4-2.2,1.7c-3,0.9-4.1-1.8-6-3c-0.7-1.7-1.3-3.3-2-5C250.6,50.2,251.1,49.5,252.2,50.1z"/>
		<path class="st188" d="M258.2,59.1c0.3-1.2,0-3,2.2-1.7c-0.4,2.6-0.8,5.1-1.2,7.7c-1,0.3-2,0.7-3,1c0-1,0-2,0-3
			C258.9,62.7,258,60.6,258.2,59.1z"/>
		<path class="st108" d="M240.2,30.1c0.7,0,1.3,0,2,0c0.3,0.9,2.2,1.7,1.5,2.1C241.6,33.5,241.1,31.2,240.2,30.1z"/>
		<path class="st189" d="M333.2,92.1c0,0.7,0,1.3,0,2c-1.2-0.7-2.5-1.2-4-1c-0.3-0.7-0.7-1.3-1-2C329.9,90.9,331.6,91.1,333.2,92.1z
			"/>
		<path class="st92" d="M166.2,65.1c-0.3,1,0.7,3.4-2,2C164.6,66.1,165.2,65.4,166.2,65.1z"/>
		<path class="st190" d="M180.2,127.1c0,1.4,1.4,3.2-1,4c0,0,0,0,0,0c-0.7-1.3-0.9-2.7,0-4c0.2-0.4,0.3-0.9,0.5-1.3
			C179.8,126.2,180,126.6,180.2,127.1z"/>
		<path class="st71" d="M179.2,127.1c0,1.3,0,2.7,0,4C177.8,129.7,176.6,128.4,179.2,127.1z"/>
		<path class="st188" d="M258.9,71.1c0,2,0,3.9,0,5.9C257.8,75,257.8,73.1,258.9,71.1z"/>
		<path class="st191" d="M210.2,70.1c-1.1-0.8-2.2-1.6-3.5-2.5c2.3-1,3,1.1,4.5,1.5C210.8,69.4,210.5,69.7,210.2,70.1z"/>
		<path class="st192" d="M206.2,61.1c0.7,1.8,1.6,3.4,4,3c-1.1,1.5-2.6,0.9-4,1C205.7,63.7,204.4,62.4,206.2,61.1z"/>
		<path class="st193" d="M252.2,50.1c-0.7,0.3-1.3,0.7-2,1c-0.3,0-0.7,0-1,0c0.2-2.2-0.8-4.7,2-6C251.5,46.7,251.8,48.4,252.2,50.1z
			"/>
		<path class="st94" d="M262.5,50.2c-2.6-3.3-4.5-0.6-6.5,0.8c-1.2,0.9-1.8,3.2-3.8,1.1c2.2-4.4,4.6-8.7,10-10
			c-0.1,1.8,0.3,3.3,2.1,4.1C264.1,47.7,263.6,49.1,262.5,50.2z"/>
		<path class="st194" d="M266.2,79.1c-2.6-1.2-0.7-5.2-3.8-6c0.3-1.7,0.6-3.3,1-5c1.6-0.3,2.2,0.9,3.1,1.8c0.2,0.4,0.1,0.8-0.3,1.1
			C266.2,73.7,266.2,76.4,266.2,79.1z"/>
		<path class="st195" d="M266.2,70c-1.5,0.2-1.9-1.3-2.8-1.9c0.5-2.1,1-4.1,1.5-6.2c0.8,0.7,1.6,1.4,2.3,2.1c0,0,0,0,0,0
			C268.1,66.3,266.4,68,266.2,70z"/>
		<path class="st196" d="M262.4,77.1c1.2,1.7,1.3,3.3-0.1,4.9C262.3,80.4,262.3,78.7,262.4,77.1z"/>
		<path class="st24" d="M216.2,123.1c0,2-1.7,2.3-3,3C213.3,124.1,214.3,123.1,216.2,123.1z"/>
		<path class="st197" d="M266.2,70c-0.4-2.1,0.7-4,1-6c2.2,2.3-1,4.7,0,7c-0.3,0-0.7,0-1,0C266.2,70.7,266.2,70.4,266.2,70z"/>
	</g>
</g>
<text transform="matrix(1 0 0 1 208.9472 219.5698)" class="st198 st199">rctl</text>
</svg>
